<?xml version="1.0" encoding="utf-8"?>
<!-- Generator: Adobe Illustrator 23.1.1, SVG Export Plug-In . SVG Version: 6.00 Build 0)  -->
<svg version="1.1" xmlns="http://www.w3.org/2000/svg" xmlns:xlink="http://www.w3.org/1999/xlink" x="0px" y="0px"
	 viewBox="0 0 1554.21 608.69" enable-background="new 0 0 1554.21 608.69" xml:space="preserve">
<g id="圖層_1">
	<title>star-bg</title>
	<g>
		<path fill-rule="evenodd" clip-rule="evenodd" fill="#D15D64" d="M574.53,122.12l2.76,1.51c0.19,0.11,0.26,0.34,0.15,0.54
			c-0.04,0.07-0.09,0.12-0.15,0.15l-2.76,1.51c-0.07,0.04-0.12,0.09-0.16,0.16l-1.51,2.76c-0.1,0.19-0.34,0.26-0.53,0.16
			c-0.07-0.04-0.12-0.09-0.16-0.16l-1.51-2.75c-0.04-0.07-0.09-0.12-0.16-0.16l-2.76-1.5c-0.19-0.11-0.26-0.34-0.15-0.54
			c0.04-0.07,0.09-0.12,0.15-0.15l2.76-1.51c0.07-0.04,0.12-0.09,0.16-0.16l1.51-2.75c0.1-0.19,0.34-0.26,0.53-0.16
			c0.07,0.04,0.12,0.09,0.16,0.16l1.51,2.75C574.41,122.03,574.46,122.08,574.53,122.12"/>
		<path fill-rule="evenodd" clip-rule="evenodd" fill="#FCD05C" d="M899.61,240.72l1.36,0.75c0.19,0.11,0.26,0.35,0.16,0.54
			c-0.04,0.07-0.09,0.12-0.16,0.16l-1.36,0.74c-0.07,0.04-0.12,0.09-0.16,0.16l-0.74,1.36c-0.1,0.19-0.34,0.26-0.53,0.16
			c-0.07-0.04-0.12-0.09-0.16-0.16l-0.74-1.36c-0.04-0.07-0.09-0.12-0.16-0.16l-1.36-0.74c-0.19-0.11-0.26-0.35-0.16-0.54
			c0.04-0.07,0.09-0.12,0.16-0.16l1.36-0.74c0.07-0.04,0.12-0.09,0.16-0.15l0.74-1.36c0.11-0.19,0.35-0.26,0.54-0.16
			c0.07,0.04,0.12,0.09,0.16,0.16l0.74,1.36C899.49,240.63,899.55,240.69,899.61,240.72"/>
		<path fill-rule="evenodd" clip-rule="evenodd" fill="#D15D64" d="M1063.36,93.91c0,1.61-1.3,2.91-2.91,2.91
			c-1.61,0-2.91-1.3-2.91-2.91s1.3-2.91,2.91-2.91C1062.06,91,1063.37,92.3,1063.36,93.91"/>
		<path fill-rule="evenodd" clip-rule="evenodd" fill="#FCD05C" d="M102.61,272.72l1.36,0.74c0.19,0.11,0.26,0.35,0.16,0.54
			c-0.04,0.07-0.09,0.12-0.16,0.16l-1.36,0.74c-0.07,0.04-0.12,0.09-0.16,0.16l-0.74,1.36c-0.1,0.19-0.34,0.26-0.53,0.16
			c-0.07-0.04-0.12-0.09-0.16-0.16l-0.74-1.36c-0.04-0.07-0.09-0.12-0.16-0.16l-1.36-0.74c-0.19-0.11-0.26-0.35-0.16-0.54
			c0.04-0.07,0.09-0.12,0.16-0.16l1.36-0.74c0.07-0.04,0.12-0.09,0.16-0.15l0.74-1.36c0.11-0.19,0.35-0.26,0.54-0.16
			c0.07,0.04,0.12,0.09,0.16,0.16l0.74,1.36C102.49,272.63,102.55,272.69,102.61,272.72"/>
		<path fill-rule="evenodd" clip-rule="evenodd" fill="#D15D64" d="M1518.53,367.12l2.76,1.51c0.19,0.11,0.26,0.35,0.16,0.54
			c-0.04,0.07-0.09,0.12-0.16,0.16l-2.76,1.51c-0.07,0.04-0.12,0.09-0.16,0.16l-1.51,2.75c-0.1,0.19-0.34,0.26-0.53,0.16
			c-0.07-0.04-0.12-0.09-0.16-0.16l-1.51-2.76c-0.04-0.07-0.09-0.12-0.16-0.16l-2.75-1.51c-0.19-0.1-0.26-0.34-0.16-0.53
			c0.04-0.07,0.09-0.12,0.16-0.16l2.76-1.51c0.07-0.04,0.12-0.09,0.16-0.16l1.51-2.76c0.1-0.19,0.34-0.26,0.53-0.16
			c0.07,0.04,0.12,0.09,0.16,0.16l1.51,2.76C1518.41,367.03,1518.46,367.08,1518.53,367.12 M1183.43,130.65l1.3,0.71
			c0.26,0.14,0.26,0.52,0,0.66l-1.3,0.71c-0.06,0.03-0.11,0.09-0.15,0.15l-0.71,1.3c-0.1,0.18-0.33,0.25-0.51,0.15
			c-0.06-0.03-0.11-0.09-0.15-0.15l-0.71-1.3c-0.04-0.06-0.09-0.11-0.15-0.15l-1.3-0.71c-0.18-0.1-0.25-0.33-0.15-0.51
			c0.03-0.06,0.09-0.11,0.15-0.15l1.3-0.71c0.06-0.04,0.11-0.09,0.15-0.15l0.71-1.3c0.1-0.18,0.33-0.25,0.51-0.15
			c0.06,0.03,0.12,0.09,0.15,0.15l0.71,1.3C1183.31,130.56,1183.37,130.61,1183.43,130.65"/>
		<path fill-rule="evenodd" clip-rule="evenodd" fill="#FCD05C" d="M1490.61,222.72l1.36,0.74c0.19,0.11,0.26,0.35,0.16,0.54
			c-0.04,0.07-0.09,0.12-0.16,0.16l-1.36,0.74c-0.07,0.04-0.12,0.09-0.16,0.16l-0.74,1.36c-0.1,0.19-0.34,0.26-0.53,0.16
			c-0.07-0.04-0.12-0.09-0.16-0.16l-0.74-1.36c-0.04-0.07-0.09-0.12-0.16-0.16l-1.36-0.74c-0.19-0.11-0.26-0.35-0.16-0.54
			c0.04-0.07,0.09-0.12,0.16-0.16l1.36-0.74c0.07-0.04,0.12-0.09,0.16-0.15l0.74-1.36c0.11-0.19,0.35-0.26,0.54-0.16
			c0.07,0.04,0.12,0.09,0.16,0.16l0.74,1.36C1490.49,222.63,1490.55,222.69,1490.61,222.72"/>
		<path fill="none" stroke="#E98333" stroke-width="1.097" stroke-linecap="round" stroke-linejoin="round" d="M267.55,225.89
			l3.55-0.89l-0.89,3.55L267.55,225.89z"/>
		<path fill-rule="evenodd" clip-rule="evenodd" fill="#E98333" d="M387.53,150.12l2.75,1.51c0.19,0.11,0.26,0.34,0.15,0.54
			c-0.04,0.07-0.09,0.12-0.15,0.15l-2.76,1.51c-0.07,0.04-0.12,0.09-0.16,0.16l-1.51,2.76c-0.1,0.19-0.34,0.26-0.53,0.16
			c-0.07-0.04-0.12-0.09-0.16-0.16l-1.51-2.76c-0.04-0.07-0.09-0.12-0.16-0.16l-2.76-1.51c-0.19-0.1-0.26-0.34-0.16-0.53
			c0.04-0.07,0.09-0.12,0.16-0.16l2.76-1.51c0.07-0.04,0.12-0.09,0.16-0.16l1.51-2.75c0.11-0.19,0.34-0.26,0.54-0.15
			c0.07,0.04,0.12,0.09,0.15,0.15l1.51,2.76C387.41,150.03,387.46,150.08,387.53,150.12"/>
		<path fill-rule="evenodd" clip-rule="evenodd" fill="#E98333" d="M44.53,97.12l2.75,1.51c0.19,0.11,0.26,0.34,0.15,0.54
			c-0.04,0.07-0.09,0.12-0.15,0.15l-2.76,1.51c-0.07,0.04-0.12,0.09-0.16,0.16l-1.51,2.76c-0.1,0.19-0.34,0.26-0.53,0.16
			c-0.07-0.04-0.12-0.09-0.16-0.16l-1.51-2.76c-0.04-0.07-0.09-0.12-0.16-0.16l-2.75-1.51c-0.19-0.1-0.26-0.34-0.16-0.53
			c0.04-0.07,0.09-0.12,0.16-0.16l2.75-1.51c0.07-0.04,0.12-0.09,0.16-0.16l1.51-2.75c0.11-0.19,0.34-0.26,0.54-0.15
			c0.07,0.04,0.12,0.09,0.15,0.15l1.51,2.76C44.41,97.03,44.46,97.08,44.53,97.12"/>
		<path fill="none" stroke="#7B63AB" stroke-width="1.097" stroke-linecap="round" stroke-linejoin="round" d="M605.44,404.02
			l-0.85-1.6c-0.04-0.08-0.1-0.14-0.18-0.18l-1.6-0.85c-0.21-0.11-0.29-0.37-0.18-0.59c0.04-0.08,0.1-0.14,0.18-0.18l1.6-0.85
			c0.08-0.04,0.14-0.1,0.18-0.18l0.85-1.6c0.11-0.21,0.37-0.29,0.59-0.18c0.08,0.04,0.14,0.1,0.18,0.18l0.85,1.6
			c0.04,0.08,0.1,0.14,0.18,0.18l1.6,0.85c0.31,0.16,0.31,0.6,0,0.77l-1.6,0.85c-0.08,0.04-0.14,0.1-0.18,0.18l-0.85,1.6
			c-0.11,0.21-0.37,0.29-0.59,0.18C605.55,404.16,605.48,404.1,605.44,404.02L605.44,404.02z"/>
		<path fill-rule="evenodd" clip-rule="evenodd" fill="#FCD05C" d="M1350.61,246.72l1.36,0.74c0.19,0.11,0.26,0.35,0.16,0.54
			c-0.04,0.07-0.09,0.12-0.16,0.16l-1.36,0.74c-0.07,0.04-0.12,0.09-0.16,0.16l-0.74,1.36c-0.1,0.19-0.34,0.26-0.53,0.16
			c-0.07-0.04-0.12-0.09-0.16-0.16l-0.74-1.36c-0.04-0.07-0.09-0.12-0.16-0.16l-1.36-0.74c-0.19-0.11-0.26-0.35-0.16-0.54
			c0.04-0.07,0.09-0.12,0.16-0.16l1.36-0.74c0.07-0.04,0.12-0.09,0.16-0.15l0.74-1.36c0.11-0.19,0.35-0.26,0.54-0.16
			c0.07,0.04,0.12,0.09,0.16,0.16l0.74,1.36C1350.49,246.63,1350.55,246.69,1350.61,246.72"/>
		<path fill-rule="evenodd" clip-rule="evenodd" fill="#FCD05C" d="M485.61,430.9l1.36-0.74c0.19-0.11,0.26-0.35,0.16-0.54
			c-0.04-0.07-0.09-0.12-0.16-0.16l-1.36-0.74c-0.07-0.04-0.12-0.09-0.16-0.16l-0.74-1.36c-0.1-0.19-0.34-0.26-0.53-0.16
			c-0.07,0.04-0.12,0.09-0.16,0.16l-0.74,1.36c-0.04,0.07-0.09,0.12-0.16,0.16l-1.36,0.74c-0.19,0.11-0.26,0.35-0.16,0.54
			c0.04,0.07,0.09,0.12,0.16,0.16l1.36,0.74c0.07,0.04,0.12,0.09,0.16,0.16l0.74,1.36c0.15,0.27,0.54,0.27,0.69,0l0.74-1.36
			C485.49,430.99,485.54,430.94,485.61,430.9"/>
		<path fill-rule="evenodd" clip-rule="evenodd" fill="#D15D64" d="M201.53,515.82l2.76-1.51c0.19-0.1,0.26-0.34,0.16-0.53
			c-0.04-0.07-0.09-0.12-0.16-0.16l-2.76-1.51c-0.07-0.04-0.12-0.09-0.16-0.16l-1.51-2.76c-0.1-0.19-0.34-0.26-0.53-0.16
			c-0.07,0.04-0.12,0.09-0.16,0.16l-1.51,2.76c-0.04,0.07-0.09,0.12-0.16,0.16l-2.75,1.51c-0.19,0.11-0.26,0.34-0.15,0.54
			c0.04,0.07,0.09,0.12,0.15,0.15l2.75,1.51c0.07,0.04,0.12,0.09,0.16,0.16l1.51,2.75c0.15,0.27,0.54,0.27,0.69,0l1.51-2.76
			C201.41,515.91,201.46,515.86,201.53,515.82"/>
		<path fill-rule="evenodd" clip-rule="evenodd" fill="#FCD05C" d="M82.61,393.9l1.36-0.74c0.19-0.11,0.26-0.35,0.16-0.54
			c-0.04-0.07-0.09-0.12-0.16-0.16l-1.36-0.74c-0.07-0.04-0.12-0.09-0.16-0.16l-0.74-1.36c-0.1-0.19-0.34-0.26-0.53-0.16
			c-0.07,0.04-0.12,0.09-0.16,0.16l-0.74,1.36c-0.04,0.07-0.09,0.12-0.16,0.16l-1.36,0.74c-0.19,0.11-0.26,0.35-0.16,0.54
			c0.04,0.07,0.09,0.12,0.16,0.16l1.36,0.74c0.07,0.04,0.12,0.09,0.16,0.16l0.74,1.36c0.15,0.27,0.54,0.27,0.69,0l0.74-1.36
			C82.49,393.99,82.54,393.94,82.61,393.9"/>
		<path fill-rule="evenodd" clip-rule="evenodd" fill="#D15D64" d="M1292.53,151.82l2.76-1.51c0.19-0.1,0.26-0.34,0.16-0.54
			c-0.04-0.07-0.09-0.12-0.16-0.16l-2.76-1.51c-0.07-0.04-0.12-0.09-0.16-0.16l-1.51-2.76c-0.1-0.19-0.34-0.26-0.53-0.16
			c-0.07,0.04-0.12,0.09-0.16,0.16l-1.51,2.76c-0.04,0.07-0.09,0.12-0.16,0.16l-2.75,1.51c-0.19,0.1-0.26,0.34-0.16,0.53
			c0.04,0.07,0.09,0.12,0.16,0.16l2.76,1.51c0.07,0.04,0.12,0.09,0.16,0.16l1.51,2.75c0.15,0.27,0.54,0.27,0.69,0l1.51-2.76
			C1292.41,151.91,1292.46,151.86,1292.53,151.82"/>
		<path fill-rule="evenodd" clip-rule="evenodd" fill="#7B63AB" d="M1236.12,175.9c0.07,0.04,0.12,0.09,0.16,0.16"/>
		<path fill-rule="evenodd" clip-rule="evenodd" fill="#7B63AB" d="M1236.27,173.57c-0.04,0.07-0.09,0.12-0.16,0.16"/>
		<path fill-rule="evenodd" clip-rule="evenodd" fill="#E98333" d="M424.53,455.82l2.75-1.51c0.19-0.1,0.26-0.34,0.16-0.53
			c-0.04-0.07-0.09-0.12-0.16-0.16l-2.76-1.51c-0.07-0.04-0.12-0.09-0.16-0.16l-1.51-2.76c-0.1-0.19-0.34-0.26-0.53-0.16
			c-0.07,0.04-0.12,0.09-0.16,0.16l-1.51,2.76c-0.04,0.07-0.09,0.12-0.16,0.16l-2.75,1.51c-0.19,0.1-0.26,0.34-0.16,0.53
			c0.04,0.07,0.09,0.12,0.16,0.16l2.75,1.51c0.07,0.04,0.12,0.09,0.16,0.16l1.51,2.75c0.15,0.27,0.54,0.27,0.69,0l1.51-2.76
			C424.41,455.91,424.46,455.86,424.53,455.82"/>
		<path fill-rule="evenodd" clip-rule="evenodd" fill="#D15D64" d="M1378.43,379.73l1.3-0.71c0.18-0.1,0.25-0.33,0.15-0.51
			c-0.03-0.06-0.09-0.11-0.15-0.15l-1.3-0.71c-0.06-0.03-0.12-0.09-0.15-0.15l-0.71-1.3c-0.1-0.18-0.33-0.25-0.51-0.15
			c-0.06,0.03-0.11,0.09-0.15,0.15l-0.71,1.3c-0.04,0.06-0.09,0.12-0.15,0.15l-1.3,0.71c-0.18,0.1-0.25,0.33-0.15,0.51
			c0.03,0.06,0.09,0.12,0.15,0.15l1.3,0.71c0.06,0.04,0.11,0.09,0.15,0.15l0.71,1.3c0.1,0.18,0.33,0.25,0.51,0.15
			c0.06-0.03,0.12-0.09,0.15-0.15l0.71-1.3C1378.31,379.81,1378.37,379.76,1378.43,379.73"/>
		<g transform="matrix(1 0 0 -1 1587 986)">
			<defs>
				<filter id="Adobe_OpacityMaskFilter" filterUnits="userSpaceOnUse" x="-162.84" y="-855.69" width="5.62" height="5.62">
					<feColorMatrix  type="matrix" values="1 0 0 0 0  0 1 0 0 0  0 0 1 0 0  0 0 0 1 0"/>
				</filter>
			</defs>
			<mask maskUnits="userSpaceOnUse" x="-162.84" y="-855.69" width="5.62" height="5.62" id="f_2_">
				<g filter="url(#Adobe_OpacityMaskFilter)">
					<path id="e_2_" fill-rule="evenodd" clip-rule="evenodd" fill="#FFFFFF" d="M-157.22,850.07v5.62h-5.62v-5.62L-157.22,850.07
						L-157.22,850.07z"/>
				</g>
			</mask>
			<path mask="url(#f_2_)" fill-rule="evenodd" clip-rule="evenodd" fill="#7B63AB" d="M-158.78,851.79l1.36,0.74
				c0.19,0.1,0.26,0.34,0.16,0.53c-0.04,0.07-0.09,0.12-0.16,0.16l-1.36,0.74c-0.07,0.04-0.12,0.09-0.16,0.16l-0.74,1.36
				c-0.1,0.19-0.34,0.26-0.53,0.16c-0.07-0.04-0.12-0.09-0.16-0.16l-0.74-1.36c-0.04-0.07-0.09-0.12-0.15-0.16l-1.36-0.74
				c-0.19-0.11-0.26-0.35-0.16-0.54c0.04-0.07,0.09-0.12,0.16-0.16l1.36-0.74c0.07-0.04,0.12-0.09,0.16-0.16l0.74-1.36
				c0.1-0.19,0.34-0.26,0.53-0.16c0.07,0.04,0.12,0.09,0.16,0.16l0.74,1.36C-158.9,851.7-158.85,851.75-158.78,851.79"/>
		</g>
		<path fill-rule="evenodd" clip-rule="evenodd" fill="#D15D64" d="M1130.43,572.73l1.3-0.71c0.18-0.1,0.25-0.33,0.15-0.51
			c-0.03-0.06-0.09-0.11-0.15-0.15l-1.3-0.71c-0.06-0.03-0.12-0.09-0.15-0.15l-0.71-1.3c-0.1-0.18-0.33-0.25-0.51-0.15
			c-0.06,0.03-0.11,0.09-0.15,0.15l-0.71,1.3c-0.04,0.06-0.09,0.12-0.15,0.15l-1.3,0.71c-0.18,0.1-0.25,0.33-0.15,0.51
			c0.03,0.06,0.09,0.12,0.15,0.15l1.3,0.71c0.06,0.04,0.11,0.09,0.15,0.15l0.71,1.3c0.1,0.18,0.33,0.25,0.51,0.15
			c0.06-0.03,0.12-0.09,0.15-0.15l0.71-1.3C1130.31,572.81,1130.37,572.76,1130.43,572.73"/>
		<path fill-rule="evenodd" clip-rule="evenodd" fill="#FCD05C" d="M1260.61,403.9l1.36-0.74c0.19-0.11,0.26-0.35,0.16-0.54
			c-0.04-0.07-0.09-0.12-0.16-0.16l-1.36-0.74c-0.07-0.04-0.12-0.09-0.16-0.16l-0.74-1.36c-0.1-0.19-0.34-0.26-0.53-0.16
			c-0.07,0.04-0.12,0.09-0.16,0.16l-0.74,1.36c-0.04,0.07-0.09,0.12-0.16,0.16l-1.36,0.74c-0.19,0.11-0.26,0.35-0.16,0.54
			c0.04,0.07,0.09,0.12,0.16,0.16l1.36,0.74c0.07,0.04,0.12,0.09,0.16,0.16l0.74,1.36c0.15,0.27,0.54,0.27,0.69,0l0.74-1.36
			C1260.49,403.99,1260.54,403.94,1260.61,403.9"/>
		<path fill="none" stroke="#00A959" stroke-width="1.097" stroke-linecap="round" stroke-linejoin="round" d="M779.47,420.55
			l1.76,0.54l1.76-0.54l-0.54,1.76l0.54,1.76l-1.76-0.54l-1.76,0.54l0.54-1.76L779.47,420.55z"/>
		<g>
			<path fill="none" stroke="#E98333" stroke-width="1.097" stroke-linecap="round" stroke-linejoin="round" d="M516.87,74.57
				l-2.83-2.82 M524.54,82.25l-2.82-2.82 M517,74.26c1.39-1.39,3.64-1.39,5.03,0c1.39,1.39,1.39,3.64,0,5.03
				c-1.39,1.39-3.64,1.39-5.03,0S515.61,75.65,517,74.26L517,74.26z"/>
		</g>
	</g>
</g>
<g id="圖層_2" display="none">
	<path display="inline" fill="none" stroke="#7B63AB" stroke-width="1.097" stroke-linecap="round" stroke-linejoin="round" d="
		M150.48,19.86l-1.47,1.47 M154.48,15.86l-1.47,1.47 M150.56,20.02c0.72,0.72,1.9,0.72,2.62,0c0.72-0.72,0.72-1.9,0-2.62
		s-1.9-0.72-2.62,0C149.83,18.13,149.83,19.3,150.56,20.02L150.56,20.02z"/>
	<path display="inline" fill-rule="evenodd" clip-rule="evenodd" fill="#D15D64" d="M464.02,539.74l2.76,1.51
		c0.19,0.1,0.26,0.34,0.16,0.53c-0.04,0.07-0.09,0.12-0.16,0.16l-2.76,1.51c-0.07,0.04-0.12,0.09-0.16,0.16l-1.51,2.76
		c-0.1,0.19-0.34,0.26-0.53,0.16c-0.07-0.04-0.12-0.09-0.16-0.16l-1.51-2.76c-0.04-0.07-0.09-0.12-0.16-0.16l-2.76-1.51
		c-0.19-0.1-0.26-0.34-0.16-0.53c0.04-0.07,0.09-0.12,0.16-0.16l2.76-1.51c0.07-0.04,0.12-0.09,0.16-0.16l1.51-2.76
		c0.1-0.19,0.34-0.26,0.53-0.16c0.07,0.04,0.12,0.09,0.16,0.16l1.51,2.76C463.9,539.65,463.96,539.71,464.02,539.74"/>
	<path display="inline" fill-rule="evenodd" clip-rule="evenodd" fill="#D15D64" d="M314.99,32.98l2.76,1.51
		c0.19,0.11,0.26,0.34,0.15,0.54c-0.04,0.07-0.09,0.12-0.15,0.15l-2.76,1.51c-0.07,0.04-0.12,0.09-0.16,0.16l-1.51,2.75
		c-0.1,0.19-0.34,0.26-0.53,0.16c-0.07-0.04-0.12-0.09-0.16-0.16l-1.51-2.76c-0.04-0.07-0.09-0.12-0.16-0.16l-2.76-1.51
		c-0.19-0.11-0.26-0.34-0.15-0.54c0.04-0.07,0.09-0.12,0.15-0.15l2.76-1.51c0.07-0.04,0.12-0.09,0.16-0.16l1.51-2.76
		c0.1-0.19,0.34-0.26,0.53-0.16c0.07,0.04,0.12,0.09,0.16,0.16l1.51,2.76C314.87,32.89,314.92,32.94,314.99,32.98"/>
	<path display="inline" fill-rule="evenodd" clip-rule="evenodd" fill="#D15D64" d="M654.44,228.91l2.76,1.51
		c0.19,0.11,0.26,0.35,0.16,0.54c-0.04,0.07-0.09,0.12-0.16,0.16l-2.76,1.51c-0.07,0.04-0.12,0.09-0.16,0.16l-1.51,2.76
		c-0.1,0.19-0.34,0.26-0.53,0.16c-0.07-0.04-0.12-0.09-0.16-0.16l-1.51-2.76c-0.04-0.07-0.09-0.12-0.16-0.16l-2.75-1.51
		c-0.19-0.1-0.26-0.34-0.16-0.53c0.04-0.07,0.09-0.12,0.16-0.16l2.76-1.51c0.07-0.04,0.12-0.09,0.16-0.15l1.51-2.76
		c0.1-0.19,0.34-0.26,0.53-0.16c0.07,0.04,0.12,0.09,0.16,0.16l1.51,2.76C654.32,228.82,654.37,228.88,654.44,228.91"/>
	<path display="inline" fill-rule="evenodd" clip-rule="evenodd" fill="#7B63AB" d="M1358.07,95.58l1.36,0.74
		c0.19,0.11,0.26,0.35,0.16,0.54c-0.04,0.07-0.09,0.12-0.16,0.16l-1.36,0.74c-0.07,0.04-0.12,0.09-0.16,0.16l-0.74,1.36
		c-0.11,0.19-0.35,0.26-0.54,0.16c-0.07-0.04-0.12-0.09-0.16-0.16l-0.74-1.36c-0.04-0.07-0.09-0.12-0.16-0.16l-1.36-0.74
		c-0.19-0.11-0.26-0.35-0.16-0.54c0.04-0.07,0.09-0.12,0.16-0.16l1.36-0.74c0.07-0.04,0.12-0.09,0.16-0.16l0.74-1.36
		c0.11-0.19,0.35-0.26,0.54-0.16c0.07,0.04,0.12,0.09,0.16,0.16l0.74,1.36C1357.95,95.49,1358.01,95.55,1358.07,95.58"/>
	<path display="inline" fill-rule="evenodd" clip-rule="evenodd" fill="#D15D64" d="M994.89,210.51l1.3,0.71
		c0.26,0.14,0.26,0.52,0,0.66l-1.3,0.71c-0.06,0.03-0.12,0.09-0.15,0.15l-0.71,1.3c-0.1,0.18-0.33,0.25-0.51,0.15
		c-0.06-0.03-0.11-0.09-0.15-0.15l-0.71-1.3c-0.04-0.06-0.09-0.11-0.15-0.15l-1.3-0.71c-0.18-0.1-0.25-0.33-0.15-0.51
		c0.03-0.06,0.09-0.11,0.15-0.15l1.3-0.71c0.06-0.04,0.11-0.09,0.15-0.15l0.71-1.3c0.1-0.18,0.33-0.25,0.51-0.15
		c0.06,0.03,0.12,0.09,0.15,0.15l0.71,1.3C994.77,210.42,994.83,210.47,994.89,210.51"/>
	<g transform="translate(1598 622)" display="inline">
		<defs>
			<filter id="Adobe_OpacityMaskFilter_1_" filterUnits="userSpaceOnUse" x="-278.32" y="-127.44" width="9.94" height="9.94">
				<feColorMatrix  type="matrix" values="1 0 0 0 0  0 1 0 0 0  0 0 1 0 0  0 0 0 1 0"/>
			</filter>
		</defs>
		<mask maskUnits="userSpaceOnUse" x="-278.32" y="-127.44" width="9.94" height="9.94" id="d_1_">
			<g filter="url(#Adobe_OpacityMaskFilter_1_)">
				<path id="c_1_" fill-rule="evenodd" clip-rule="evenodd" fill="#FFFFFF" d="M-278.32-127.44h9.94v9.94h-9.94V-127.44z"/>
			</g>
		</mask>
		<path mask="url(#d_1_)" fill-rule="evenodd" clip-rule="evenodd" fill="#D15D64" d="M-271.34-124.33l2.76,1.51
			c0.19,0.11,0.26,0.34,0.15,0.54c-0.04,0.07-0.09,0.12-0.15,0.15l-2.76,1.51c-0.07,0.04-0.12,0.09-0.16,0.16l-1.51,2.75
			c-0.11,0.19-0.34,0.26-0.54,0.15c-0.07-0.04-0.12-0.09-0.15-0.15l-1.51-2.75c-0.04-0.07-0.09-0.12-0.16-0.16l-2.76-1.51
			c-0.19-0.11-0.26-0.34-0.15-0.54c0.04-0.07,0.09-0.12,0.15-0.15l2.76-1.51c0.07-0.04,0.12-0.09,0.16-0.16l1.51-2.76
			c0.11-0.19,0.34-0.26,0.54-0.15c0.07,0.04,0.12,0.09,0.15,0.15l1.51,2.76C-271.46-124.42-271.41-124.36-271.34-124.33"/>
	</g>
	<path display="inline" fill-rule="evenodd" clip-rule="evenodd" fill="#D15D64" d="M302.46,501.82c0-4.47-3.63-8.09-8.1-8.09
		c-4.47,0-8.09,3.63-8.09,8.1l0,0c0,4.47,3.63,8.09,8.1,8.09C298.84,509.92,302.46,506.29,302.46,501.82"/>
	<path display="inline" fill-rule="evenodd" clip-rule="evenodd" fill="#00A959" d="M343.24,347.08l2.02-1.1l-2.02-1.1l-1.1-2.02
		l-1.1,2.02l-2.02,1.1l2.02,1.1l1.1,2.02L343.24,347.08z"/>
	<path display="inline" fill-rule="evenodd" clip-rule="evenodd" fill="#D15D64" d="M170.83,427.77c0-1.61-1.3-2.91-2.91-2.91
		s-2.91,1.3-2.91,2.91c0,1.61,1.3,2.91,2.91,2.91S170.83,429.37,170.83,427.77"/>
	<path display="inline" fill-rule="evenodd" clip-rule="evenodd" fill="#7B63AB" d="M396.41,265.61l2.64-1.44
		c0.37-0.2,0.51-0.67,0.3-1.04c-0.07-0.13-0.17-0.23-0.3-0.3l-2.64-1.44c-0.13-0.07-0.23-0.17-0.3-0.3l-1.44-2.64
		c-0.2-0.37-0.67-0.51-1.04-0.3c-0.13,0.07-0.23,0.17-0.3,0.3l-1.44,2.64c-0.07,0.13-0.18,0.23-0.3,0.3l-2.64,1.45
		c-0.37,0.2-0.51,0.67-0.3,1.04c0.07,0.13,0.17,0.23,0.3,0.3l2.64,1.44c0.13,0.07,0.23,0.17,0.3,0.3l1.44,2.64
		c0.29,0.53,1.05,0.53,1.34,0l1.44-2.64C396.18,265.79,396.29,265.69,396.41,265.61"/>
	<path display="inline" fill-rule="evenodd" clip-rule="evenodd" fill="#FCD05C" d="M1105.99,462.68l2.76-1.51
		c0.19-0.1,0.26-0.34,0.16-0.53c-0.04-0.07-0.09-0.12-0.16-0.16l-2.76-1.51c-0.07-0.04-0.12-0.09-0.16-0.16l-1.51-2.76
		c-0.1-0.19-0.34-0.26-0.53-0.16c-0.07,0.04-0.12,0.09-0.16,0.16l-1.51,2.76c-0.04,0.07-0.09,0.12-0.16,0.16l-2.76,1.51
		c-0.19,0.1-0.26,0.34-0.16,0.53c0.04,0.07,0.09,0.12,0.16,0.16l2.76,1.51c0.07,0.04,0.12,0.09,0.16,0.16l1.51,2.75
		c0.15,0.27,0.54,0.27,0.69,0l1.51-2.76C1105.87,462.77,1105.93,462.72,1105.99,462.68"/>
</g>
<g id="圖層_3" display="none">
	<path display="inline" fill-rule="evenodd" clip-rule="evenodd" fill="#FCD05C" d="M187.48,285.12l1.36,0.74
		c0.19,0.11,0.26,0.35,0.16,0.54c-0.04,0.07-0.09,0.12-0.16,0.16l-1.36,0.74c-0.07,0.04-0.12,0.09-0.16,0.16l-0.74,1.36
		c-0.1,0.19-0.34,0.26-0.53,0.16c-0.07-0.04-0.12-0.09-0.16-0.16l-0.74-1.36c-0.04-0.07-0.09-0.12-0.16-0.16l-1.36-0.74
		c-0.19-0.11-0.26-0.35-0.16-0.54c0.04-0.07,0.09-0.12,0.16-0.16l1.36-0.74c0.07-0.04,0.12-0.09,0.16-0.15l0.74-1.36
		c0.11-0.19,0.35-0.26,0.54-0.16c0.07,0.04,0.12,0.09,0.16,0.16l0.74,1.36C187.36,285.03,187.41,285.09,187.48,285.12"/>
	<path display="inline" fill="none" stroke="#7B63AB" stroke-width="1.097" stroke-linecap="round" stroke-linejoin="round" d="
		M402.28,50.66l-0.85-1.6c-0.04-0.08-0.1-0.14-0.18-0.18l-1.6-0.85c-0.21-0.11-0.29-0.37-0.18-0.59c0.04-0.08,0.1-0.14,0.18-0.18
		l1.6-0.85c0.08-0.04,0.14-0.1,0.18-0.18l0.85-1.6c0.11-0.21,0.37-0.29,0.59-0.18c0.08,0.04,0.14,0.1,0.18,0.18l0.84,1.6
		c0.04,0.08,0.1,0.14,0.18,0.18l1.6,0.85c0.31,0.16,0.31,0.6,0,0.77l-1.6,0.85c-0.08,0.04-0.14,0.1-0.18,0.18l-0.85,1.6
		c-0.11,0.21-0.37,0.29-0.59,0.18C402.38,50.8,402.32,50.73,402.28,50.66L402.28,50.66z"/>
	<path display="inline" fill-rule="evenodd" clip-rule="evenodd" fill="#D15D64" d="M218.23,95.31c0,1.61-1.3,2.91-2.91,2.91
		c-1.61,0-2.91-1.3-2.91-2.91c0-1.61,1.3-2.91,2.91-2.91C216.93,92.4,218.23,93.7,218.23,95.31"/>
	<path display="inline" fill-rule="evenodd" clip-rule="evenodd" fill="#FCD05C" d="M1221.48,345.12l1.36,0.74
		c0.19,0.11,0.26,0.35,0.16,0.54c-0.04,0.07-0.09,0.12-0.16,0.16l-1.36,0.74c-0.07,0.04-0.12,0.09-0.16,0.16l-0.74,1.36
		c-0.1,0.19-0.34,0.26-0.53,0.16c-0.07-0.04-0.12-0.09-0.16-0.16l-0.74-1.36c-0.04-0.07-0.09-0.12-0.16-0.16l-1.36-0.74
		c-0.19-0.11-0.26-0.35-0.16-0.54c0.04-0.07,0.09-0.12,0.16-0.16l1.36-0.74c0.07-0.04,0.12-0.09,0.16-0.15l0.74-1.36
		c0.11-0.19,0.35-0.26,0.54-0.16c0.07,0.04,0.12,0.09,0.16,0.16l0.74,1.36C1221.36,345.03,1221.41,345.09,1221.48,345.12"/>
	<g transform="translate(1580 434)" display="inline">
		<defs>
			<filter id="Adobe_OpacityMaskFilter_2_" filterUnits="userSpaceOnUse" x="-250.97" y="-151.53" width="5.62" height="5.62">
				<feColorMatrix  type="matrix" values="1 0 0 0 0  0 1 0 0 0  0 0 1 0 0  0 0 0 1 0"/>
			</filter>
		</defs>
		<mask maskUnits="userSpaceOnUse" x="-250.97" y="-151.53" width="5.62" height="5.62" id="b_1_">
			<g filter="url(#Adobe_OpacityMaskFilter_2_)">
				<path id="a_1_" fill-rule="evenodd" clip-rule="evenodd" fill="#FFFFFF" d="M-245.35-151.53v5.62h-5.62v-5.62L-245.35-151.53
					L-245.35-151.53z"/>
			</g>
		</mask>
		<path mask="url(#b_1_)" fill-rule="evenodd" clip-rule="evenodd" fill="#7B63AB" d="M-246.91-149.81l1.36,0.74
			c0.19,0.1,0.26,0.34,0.16,0.53c-0.04,0.07-0.09,0.12-0.16,0.16l-1.36,0.74c-0.07,0.04-0.12,0.09-0.16,0.16l-0.74,1.36
			c-0.1,0.19-0.34,0.26-0.53,0.16c-0.07-0.04-0.12-0.09-0.16-0.16l-0.74-1.36c-0.04-0.07-0.09-0.12-0.15-0.16l-1.36-0.74
			c-0.19-0.11-0.26-0.35-0.16-0.54c0.04-0.07,0.09-0.12,0.16-0.16l1.36-0.74c0.07-0.04,0.12-0.09,0.16-0.16l0.75-1.36
			c0.1-0.19,0.34-0.26,0.53-0.16c0.07,0.04,0.12,0.09,0.16,0.16l0.74,1.36C-247.03-149.9-246.98-149.85-246.91-149.81"/>
	</g>
	<path display="inline" fill="none" stroke="#00A959" stroke-width="1.097" stroke-linecap="round" stroke-linejoin="round" d="
		M513.01,227.04l1.76-0.54l1.76,0.54l-0.54-1.76l0.54-1.76l-1.76,0.54l-1.76-0.54l0.54,1.76L513.01,227.04z"/>
	<g display="inline">
		<path fill="none" stroke="#E98333" stroke-width="1.097" stroke-linecap="round" stroke-linejoin="round" d="M516.92,360.17
			l-1.47,1.47 M520.92,356.17l-1.47,1.47 M516.99,360.33c0.72,0.72,1.9,0.72,2.62,0c0.72-0.72,0.72-1.9,0-2.62
			c-0.72-0.72-1.9-0.72-2.62,0C516.27,358.43,516.27,359.61,516.99,360.33z"/>
	</g>
	<path display="inline" fill-rule="evenodd" clip-rule="evenodd" fill="#7B63AB" d="M1148.14,394.46l0.74,1.36
		c0.15,0.27,0.54,0.27,0.69,0l0.74-1.36c0.04-0.07,0.09-0.12,0.16-0.16"/>
	<path display="inline" fill-rule="evenodd" clip-rule="evenodd" fill="#7B63AB" d="M1147.98,392.12l-1.36,0.74
		c-0.19,0.11-0.26,0.35-0.16,0.54c0.04,0.07,0.09,0.12,0.16,0.16l1.36,0.74"/>
	<path display="inline" fill-rule="evenodd" clip-rule="evenodd" fill="#7B63AB" d="M1150.48,394.3l1.36-0.74
		c0.19-0.11,0.26-0.35,0.16-0.54c-0.04-0.07-0.09-0.12-0.16-0.16l-1.36-0.74c-0.07-0.04-0.12-0.09-0.16-0.16l-0.74-1.36
		c-0.11-0.19-0.35-0.26-0.54-0.16c-0.07,0.04-0.12,0.09-0.16,0.16l-0.74,1.36"/>
	<path display="inline" fill="none" stroke="#7B63AB" stroke-width="1.097" stroke-linecap="round" stroke-linejoin="round" d="
		M589.28,522.63l-0.85,1.6c-0.04,0.08-0.1,0.14-0.18,0.18l-1.6,0.85c-0.21,0.11-0.29,0.37-0.18,0.59c0.04,0.08,0.1,0.14,0.18,0.18
		l1.6,0.85c0.08,0.04,0.14,0.1,0.18,0.18l0.85,1.6c0.16,0.31,0.6,0.31,0.77,0l0.84-1.6c0.04-0.08,0.1-0.14,0.18-0.18l1.6-0.85
		c0.21-0.11,0.29-0.37,0.18-0.59c-0.04-0.08-0.1-0.14-0.18-0.18l-1.6-0.85c-0.08-0.04-0.14-0.1-0.18-0.18l-0.85-1.6
		c-0.11-0.21-0.37-0.29-0.59-0.18C589.38,522.49,589.32,522.56,589.28,522.63L589.28,522.63z"/>
	<path display="inline" fill-rule="evenodd" clip-rule="evenodd" fill="#D15D64" d="M832.24,578.64l2.76-1.51
		c0.19-0.1,0.26-0.34,0.16-0.54c-0.04-0.07-0.09-0.12-0.16-0.16l-2.76-1.51c-0.07-0.04-0.12-0.09-0.16-0.16l-1.51-2.76
		c-0.1-0.19-0.34-0.26-0.53-0.16c-0.07,0.04-0.12,0.09-0.16,0.16l-1.51,2.76c-0.04,0.07-0.09,0.12-0.16,0.16l-2.75,1.51
		c-0.19,0.1-0.26,0.34-0.16,0.53c0.04,0.07,0.09,0.12,0.16,0.16l2.76,1.51c0.07,0.04,0.12,0.09,0.16,0.16l1.51,2.75
		c0.15,0.27,0.54,0.27,0.69,0l1.51-2.76C832.12,578.73,832.17,578.68,832.24,578.64"/>
	<path display="inline" fill-rule="evenodd" clip-rule="evenodd" fill="#D15D64" d="M924.86,88.38l2.76,1.51
		c0.19,0.11,0.26,0.34,0.15,0.54c-0.04,0.07-0.09,0.12-0.15,0.15l-2.76,1.51c-0.07,0.04-0.12,0.09-0.16,0.16L923.19,95
		c-0.1,0.19-0.34,0.26-0.53,0.16c-0.07-0.04-0.12-0.09-0.16-0.16L921,92.24c-0.04-0.07-0.09-0.12-0.16-0.16l-2.76-1.51
		c-0.19-0.11-0.26-0.34-0.15-0.54c0.04-0.07,0.09-0.12,0.15-0.15l2.76-1.51c0.07-0.04,0.12-0.09,0.16-0.16l1.51-2.76
		c0.1-0.19,0.34-0.26,0.53-0.16c0.07,0.04,0.12,0.09,0.16,0.16l1.51,2.76C924.74,88.29,924.79,88.34,924.86,88.38"/>
	<path display="inline" fill-rule="evenodd" clip-rule="evenodd" fill="#E98333" d="M757.86,57.38l2.76,1.51
		c0.19,0.11,0.26,0.34,0.15,0.54c-0.04,0.07-0.09,0.12-0.15,0.15l-2.76,1.51c-0.07,0.04-0.12,0.09-0.16,0.16l-1.51,2.76
		c-0.1,0.19-0.34,0.26-0.53,0.16c-0.07-0.04-0.12-0.09-0.16-0.16L754,61.24c-0.04-0.07-0.09-0.12-0.16-0.16l-2.75-1.51
		c-0.19-0.1-0.26-0.34-0.16-0.53c0.04-0.07,0.09-0.12,0.16-0.16l2.76-1.51c0.07-0.04,0.12-0.09,0.16-0.16l1.51-2.76
		c0.11-0.19,0.34-0.26,0.54-0.15c0.07,0.04,0.12,0.09,0.15,0.15l1.51,2.76C757.74,57.29,757.79,57.34,757.86,57.38"/>
	<path display="inline" fill-rule="evenodd" clip-rule="evenodd" fill="#00A959" d="M895.11,423.28l2.02,1.1l-2.02,1.1l-1.1,2.02
		l-1.1-2.02l-2.02-1.1l2.02-1.1l1.1-2.02L895.11,423.28z"/>
	<path display="inline" fill-rule="evenodd" clip-rule="evenodd" fill="#D15D64" d="M1174.76,118.91l1.3,0.71
		c0.26,0.14,0.26,0.52,0,0.66l-1.3,0.71c-0.06,0.03-0.12,0.09-0.15,0.15l-0.71,1.3c-0.1,0.18-0.33,0.25-0.51,0.15
		c-0.06-0.03-0.11-0.09-0.15-0.15l-0.71-1.3c-0.04-0.06-0.09-0.12-0.15-0.15l-1.3-0.71c-0.18-0.1-0.25-0.33-0.15-0.51
		c0.03-0.06,0.09-0.12,0.15-0.15l1.3-0.71c0.06-0.04,0.11-0.09,0.15-0.15l0.71-1.3c0.1-0.18,0.33-0.25,0.51-0.15
		c0.06,0.03,0.12,0.09,0.15,0.15l0.71,1.3C1174.64,118.82,1174.69,118.87,1174.76,118.91"/>
	<path display="inline" fill-rule="evenodd" clip-rule="evenodd" fill="#FCD05C" d="M997.86,363.38l2.76,1.51
		c0.19,0.11,0.26,0.34,0.15,0.54c-0.04,0.07-0.09,0.12-0.15,0.15l-2.76,1.51c-0.07,0.04-0.12,0.09-0.16,0.16l-1.51,2.76
		c-0.1,0.19-0.34,0.26-0.53,0.16c-0.07-0.04-0.12-0.09-0.16-0.16l-1.51-2.76c-0.04-0.07-0.09-0.12-0.16-0.16l-2.76-1.51
		c-0.19-0.1-0.26-0.34-0.16-0.53c0.04-0.07,0.09-0.12,0.16-0.16l2.76-1.51c0.07-0.04,0.12-0.09,0.16-0.16l1.51-2.76
		c0.1-0.19,0.34-0.26,0.53-0.16c0.07,0.04,0.12,0.09,0.16,0.16l1.51,2.76C997.74,363.29,997.79,363.34,997.86,363.38"/>
	<path display="inline" fill="none" stroke="#E98333" stroke-width="1.097" stroke-linecap="round" stroke-linejoin="round" d="
		M143.88,174.93l3.55,0.89l-0.89-3.55L143.88,174.93z"/>
	<path display="inline" fill-rule="evenodd" clip-rule="evenodd" fill="#FCD05C" d="M733.93,372.31l2.64-1.44
		c0.37-0.2,0.51-0.67,0.3-1.04c-0.07-0.13-0.17-0.23-0.3-0.3l-2.64-1.44c-0.13-0.07-0.23-0.18-0.3-0.3l-1.44-2.64
		c-0.2-0.37-0.67-0.51-1.04-0.31c-0.13,0.07-0.24,0.18-0.31,0.31l-1.44,2.64c-0.07,0.13-0.18,0.23-0.3,0.3l-2.64,1.44
		c-0.37,0.2-0.51,0.67-0.3,1.04c0.07,0.13,0.17,0.23,0.3,0.3l2.64,1.44c0.13,0.07,0.23,0.17,0.3,0.3l1.44,2.64
		c0.29,0.53,1.05,0.53,1.34,0l1.44-2.64C733.7,372.49,733.8,372.39,733.93,372.31"/>
	<g display="inline">
		<path fill="none" stroke="#7B63AB" stroke-width="1.097" stroke-linecap="round" stroke-linejoin="round" d="M776.88,285.26
			l2.78-2.78 M768.88,293.26l2.78-2.78 M774.49,283.17c0-1-5.48,4.49-4.49,4.49c-1,0,4.49,5.48,4.49,4.49c0,1,5.48-4.49,4.49-4.49
			C779.97,287.65,774.49,282.17,774.49,283.17L774.49,283.17z"/>
	</g>
	<g display="inline">
		<path fill="none" stroke="#E98333" stroke-width="1.097" stroke-linecap="round" stroke-linejoin="round" d="M93.35,511.26
			l-1.47-1.47 M97.35,515.26l-1.47-1.47 M93.42,511.1c0.72-0.72,1.9-0.72,2.62,0c0.72,0.72,0.72,1.9,0,2.62s-1.9,0.72-2.62,0
			C92.7,512.99,92.7,511.82,93.42,511.1L93.42,511.1z"/>
	</g>
	<path display="inline" fill-rule="evenodd" clip-rule="evenodd" fill="#7B63AB" d="M1147.44,235.36c0-4.47-3.63-8.09-8.1-8.09
		c-4.47,0-8.09,3.63-8.09,8.1l0,0c0,4.47,3.63,8.09,8.1,8.09C1143.83,243.45,1147.45,239.83,1147.44,235.36"/>
</g>
</svg>
