<?xml version="1.0" encoding="utf-8"?>
<!-- Generator: Adobe Illustrator 23.1.1, SVG Export Plug-In . SVG Version: 6.00 Build 0)  -->
<svg version="1.1" id="圖層_1" xmlns="http://www.w3.org/2000/svg" xmlns:xlink="http://www.w3.org/1999/xlink" x="0px" y="0px"
	 viewBox="0 0 150 150" enable-background="new 0 0 150 150" xml:space="preserve">
<circle fill-rule="evenodd" clip-rule="evenodd" fill="#FF7E6E" cx="75" cy="75" r="75"/>
<g>
	<g>
		<path fill="#FFFFFF" d="M70.63,70.99l1.56,4.55c0.3,1.09,1.43,1.73,2.52,1.43c1.09-0.3,1.73-1.42,1.43-2.51
			c-0.02-0.08-0.05-0.16-0.08-0.23c-0.29-0.81,0.14-1.7,0.95-1.98c0.81-0.29,1.7,0.14,1.99,0.95c0,0.01,0.01,0.02,0.01,0.03
			l0.78,2.27c0.36,1.07,1.53,1.64,2.6,1.28c1.07-0.36,1.64-1.53,1.28-2.6l-2.33-6.82c-0.28-0.81,0.16-1.7,0.97-1.97l12.03-4.09
			c-1.92-3.33-5.93-4.84-9.57-3.6c-1.75,0.59-3.24,1.77-4.22,3.33c-0.34,0.54-0.98,0.82-1.61,0.7c-2.32-0.45-4.67,0.6-5.89,2.61
			c-0.29,0.49-0.83,0.77-1.39,0.75c-0.69-0.03-1.38,0.07-2.04,0.29c-2.38,0.82-3.93,3.11-3.8,5.61l2.85-0.97
			C69.47,69.75,70.35,70.18,70.63,70.99z M50.9,69.53l-0.29,1.66l12.48,2.17c-0.18-0.56-0.3-1.14-0.36-1.73L50.9,69.53z M51.59,66.5
			l11.36,2.03c0.42-1.61,1.29-3.06,2.5-4.2c-0.1-0.07-0.19-0.15-0.27-0.24c-1.21-1.4-2.86-2.33-4.69-2.64
			C56.7,60.8,52.98,62.91,51.59,66.5z M75.06,117.61c-0.41-0.07-0.77-0.3-1.01-0.64c-0.24-0.34-0.33-0.75-0.26-1.16l1.27-7.24
			L64.22,76.72l-14.14-2.47l-6.36,36.3c-0.15,0.85-0.95,1.41-1.8,1.26c-0.46-0.1-0.91,0.2-1.01,0.65c-0.1,0.46,0.2,0.91,0.65,1
			c0.02,0,0.04,0.01,0.06,0.01l33.14,5.79c0.46,0.08,0.9-0.23,0.98-0.69C75.83,118.13,75.52,117.69,75.06,117.61z M48.73,112.65
			l5.38-30.74l3.07,0.54l-5.38,30.74L48.73,112.65z M57.02,114.09l5.38-30.74l3.07,0.54l-5.38,30.73L57.02,114.09z M68.37,116.06
			l-3.06-0.51l3.02-18.28l3.06,0.51L68.37,116.06z M85.34,69.43l10.71-3.64l-0.55-1.6l-10.71,3.64L85.34,69.43z M110.9,104.59
			c-0.81,0.28-1.7-0.16-1.97-0.97L97.04,68.73l-10.71,3.64l0.27,0.8c0.92,2.69-0.53,5.62-3.22,6.54c-1.3,0.44-2.71,0.35-3.94-0.25
			c-0.56-0.28-1.07-0.65-1.5-1.11c-1.89,2.1-5.12,2.28-7.22,0.39c-0.27-0.24-0.52-0.52-0.73-0.81l-1.85,0.63l11.88,34.89
			c0.28,0.81-0.16,1.7-0.97,1.97h0c-0.44,0.15-0.68,0.63-0.53,1.08c0.15,0.44,0.63,0.68,1.08,0.53l31.86-10.82
			c0.44-0.17,0.65-0.66,0.48-1.1C111.77,104.69,111.32,104.47,110.9,104.59z M85.42,112.88L75.36,83.34l2.95-1l10.06,29.54
			L85.42,112.88z M93.39,110.17L83.32,80.63l2.95-1l10.06,29.54L93.39,110.17z M101.35,107.47L91.29,77.92l2.94-1l10.06,29.54
			L101.35,107.47z M66.58,74.01l0.55,1.6l1.6-0.55l-0.55-1.6L66.58,74.01z M90.67,40.03c2.58,0,4.67-2.09,4.67-4.66
			c0-2.57-2.09-4.66-4.67-4.66s-4.67,2.09-4.67,4.66C86.01,37.95,88.1,40.03,90.67,40.03z M76.67,54.02c4.3,0,7.78-3.48,7.78-7.77
			s-3.48-7.77-7.78-7.77s-7.78,3.48-7.78,7.77S72.37,54.02,76.67,54.02z M54.89,54.02c3.44,0,6.22-2.78,6.22-6.22
			c0-3.43-2.79-6.22-6.22-6.22c-3.44,0-6.22,2.78-6.22,6.22C48.66,51.24,51.45,54.02,54.89,54.02z M45.55,40.03
			c2.58,0,4.67-2.09,4.67-4.66c0-2.57-2.09-4.66-4.67-4.66c-2.58,0-4.67,2.09-4.67,4.66C40.88,37.95,42.97,40.03,45.55,40.03z
			 M42.73,102.64l-3.97-0.69c-2.38-0.42-3.98-2.68-3.56-5.06c0,0,0,0,0,0l3.52-20.1c0.2-1.15,0.85-2.16,1.8-2.83
			c0.95-0.67,2.12-0.93,3.27-0.73l3.97,0.69l0.56-3.2l-5.15-0.9c-3.5-0.61-6.83,1.72-7.44,5.22c0,0,0,0,0,0.01l-3.93,22.46
			c-0.61,3.49,1.73,6.82,5.23,7.44l5.15,0.9L42.73,102.64z M118.69,88.89l-7.35-21.59c-0.41-1.2-1.16-2.25-2.16-3.02
			c-1.71-1.32-3.96-1.69-6-1l-4.95,1.68l1.05,3.07l3.81-1.3c2.29-0.77,4.77,0.45,5.56,2.74l6.58,19.32
			c0.78,2.29-0.45,4.78-2.74,5.56l-3.82,1.3l1.05,3.07l4.95-1.68C118.04,95.9,119.83,92.25,118.69,88.89z"/>
	</g>
</g>
</svg>
