<svg xmlns="http://www.w3.org/2000/svg" width="1600" height="200" viewBox="0 0 1600 200">
  <defs>
    <style>
      .cls-1 {
        fill: #ffd9d0;
        fill-rule: evenodd;
      }
    </style>
  </defs>
  <path id="SZU.DESIGN" class="cls-1" d="M140.99,33.986A72.945,72.945,0,0,0,115.71,19.01a85.071,85.071,0,0,0-28.281-5.069,92.319,92.319,0,0,0-22.856,2.88,62.582,62.582,0,0,0-20.316,9.1,48.1,48.1,0,0,0-14.544,15.9Q24.172,51.5,24.172,65.09q0,11.059,3.578,18.778A41.014,41.014,0,0,0,37.216,97a51.354,51.354,0,0,0,13.39,8.87,137.481,137.481,0,0,0,15.353,5.99q8.078,2.538,14.429,4.724a53.381,53.381,0,0,1,10.62,4.838,22.61,22.61,0,0,1,6.58,5.875,13.13,13.13,0,0,1,2.309,7.834,17.39,17.39,0,0,1-1.847,8.294,15.033,15.033,0,0,1-4.964,5.53,21.29,21.29,0,0,1-7.272,3,39.252,39.252,0,0,1-8.542.922,42.953,42.953,0,0,1-19.508-4.954,47.685,47.685,0,0,1-15.814-12.326L16.092,161.858a71.842,71.842,0,0,0,27.242,17.395,96.5,96.5,0,0,0,33.937,6.106,84.647,84.647,0,0,0,23.317-3.226,59.865,59.865,0,0,0,20.086-9.907,48.49,48.49,0,0,0,13.967-16.934q5.195-10.249,5.2-24.307,0-12.21-4.849-20.391a46.646,46.646,0,0,0-12.236-13.709,64.855,64.855,0,0,0-16.391-8.87q-9-3.337-17.315-6.106-5.773-1.841-10.389-3.571a45.147,45.147,0,0,1-7.965-3.8A15.387,15.387,0,0,1,65.612,69.7a12.8,12.8,0,0,1-1.732-6.912,13.459,13.459,0,0,1,2.193-7.949A17.938,17.938,0,0,1,71.5,49.769a20.618,20.618,0,0,1,7.272-2.65,47.13,47.13,0,0,1,7.965-.691,37.52,37.52,0,0,1,15.814,3.8,35.691,35.691,0,0,1,13.275,10.253ZM305.133,181.212v-34.1H223.868l79.649-97.46V18.089H178.157V51.266h75.954l-77.8,95.785v34.161H305.133ZM487.316,119.7V18.089H447.838v98.38a48.538,48.538,0,0,1-1.616,12.672,29.8,29.8,0,0,1-5.31,10.714,25.888,25.888,0,0,1-9.581,7.488,37.835,37.835,0,0,1-28.4,0,24.875,24.875,0,0,1-9.466-7.488,32.407,32.407,0,0,1-5.309-10.714,45.375,45.375,0,0,1-1.732-12.672V18.089H347.181V119.7a71.546,71.546,0,0,0,4.848,26.842,58.515,58.515,0,0,0,13.852,20.736,63.2,63.2,0,0,0,21.932,13.478,89.524,89.524,0,0,0,58.063,0,65.538,65.538,0,0,0,22.278-13.478,58.412,58.412,0,0,0,14.2-20.736,70.111,70.111,0,0,0,4.963-26.842h0Zm80.418,25.114a23.659,23.659,0,0,0-25.395-4.608,25.007,25.007,0,0,0-7.5,4.953,22.851,22.851,0,0,0-5.079,7.258,21.242,21.242,0,0,0-1.847,8.755,20.991,20.991,0,0,0,1.847,8.87,21.853,21.853,0,0,0,5.079,7.028,24.368,24.368,0,0,0,16.622,6.451,22.858,22.858,0,0,0,16.276-6.451A22.5,22.5,0,0,0,567.734,144.809ZM769.3,60.482a68.47,68.47,0,0,0-21.24-25,85.878,85.878,0,0,0-30.012-13.363,146.484,146.484,0,0,0-34.168-4.032h-59.1V181.212H685.73a119.474,119.474,0,0,0,33.244-4.723,87.638,87.638,0,0,0,29.436-14.746,74.6,74.6,0,0,0,21.008-25.574q7.965-15.552,7.965-36.98Q777.383,76.153,769.3,60.482ZM731.787,122a39.409,39.409,0,0,1-12,14.746,48.35,48.35,0,0,1-17.315,7.948,85.06,85.06,0,0,1-20.431,2.42h-18.7V51.727h19.623a84.265,84.265,0,0,1,19.739,2.3,48.157,48.157,0,0,1,17.084,7.718,38.648,38.648,0,0,1,12,14.515q4.5,9.1,4.5,22.925Q736.289,112.786,731.787,122Zm206.135,59.213V147.573H861.967V113.705h67.875V82.14H861.967V51.266h71.8V18.089H823.874V181.212H937.922ZM1098.61,33.986a73.046,73.046,0,0,0-25.28-14.976,85.087,85.087,0,0,0-28.28-5.069,92.346,92.346,0,0,0-22.86,2.88,62.7,62.7,0,0,0-20.32,9.1,48.139,48.139,0,0,0-14.54,15.9q-5.541,9.677-5.541,23.27,0,11.059,3.578,18.778A41.02,41.02,0,0,0,994.833,97a51.4,51.4,0,0,0,13.387,8.87,137.173,137.173,0,0,0,15.36,5.99q8.07,2.538,14.42,4.724a53.16,53.16,0,0,1,10.62,4.838,22.558,22.558,0,0,1,6.58,5.875,13.108,13.108,0,0,1,2.31,7.834,17.392,17.392,0,0,1-1.84,8.294,15.086,15.086,0,0,1-4.97,5.53,21.3,21.3,0,0,1-7.27,3,39.244,39.244,0,0,1-8.54.922,42.943,42.943,0,0,1-19.51-4.954,47.757,47.757,0,0,1-15.814-12.326l-25.857,26.265a71.842,71.842,0,0,0,27.241,17.395,96.524,96.524,0,0,0,33.94,6.106,84.713,84.713,0,0,0,23.32-3.226,59.919,59.919,0,0,0,20.08-9.907,48.433,48.433,0,0,0,13.97-16.934q5.19-10.249,5.19-24.307,0-12.21-4.85-20.391a46.655,46.655,0,0,0-12.23-13.709,64.951,64.951,0,0,0-16.39-8.87q-9.015-3.337-17.32-6.106-5.775-1.841-10.39-3.571a45.133,45.133,0,0,1-7.96-3.8,15.377,15.377,0,0,1-5.08-4.838,12.747,12.747,0,0,1-1.73-6.912,13.491,13.491,0,0,1,2.19-7.949,17.911,17.911,0,0,1,5.43-5.069,20.543,20.543,0,0,1,7.27-2.65,47.053,47.053,0,0,1,7.96-.691,37.556,37.556,0,0,1,15.82,3.8,35.617,35.617,0,0,1,13.27,10.253Zm84.31,147.226V18.089h-39.71V181.212h39.71Zm199.79-9.907V84.9H1315.3v31.8h31.17v29.721a49.175,49.175,0,0,1-11.55,3.341,80.125,80.125,0,0,1-13.16,1.037,56.28,56.28,0,0,1-21.35-3.8,43.6,43.6,0,0,1-15.7-10.6,44.534,44.534,0,0,1-9.58-16.243,63.555,63.555,0,0,1-3.23-20.736,56.4,56.4,0,0,1,3.58-20.39A48,48,0,0,1,1285.52,62.9a46.009,46.009,0,0,1,15.24-10.6,47.623,47.623,0,0,1,19.16-3.8,51.814,51.814,0,0,1,21.47,4.262,43.1,43.1,0,0,1,15.23,10.944l24.94-28.339q-10.395-9.9-27.01-15.782a107.354,107.354,0,0,0-36.02-5.875,99.55,99.55,0,0,0-34.86,5.99,83.4,83.4,0,0,0-28.16,17.165,78.865,78.865,0,0,0-18.82,27.072q-6.81,15.9-6.81,35.482a89.162,89.162,0,0,0,6.69,35.136,79.853,79.853,0,0,0,18.59,27.072,83.292,83.292,0,0,0,28.4,17.51,101.629,101.629,0,0,0,36.13,6.221,147.429,147.429,0,0,0,34.97-3.917,125.6,125.6,0,0,0,28.05-10.137h0Zm200.82,9.907V18.089h-38.32l0.92,106.444h-0.69L1479.88,18.089h-45.02V181.212h38.32l-0.92-106.675h0.69l65.8,106.675h44.78Z"/>
</svg>
