<?xml version="1.0" encoding="utf-8"?>
<!-- Generator: Adobe Illustrator 23.1.1, SVG Export Plug-In . SVG Version: 6.00 Build 0)  -->
<svg version="1.1" id="圖層_1" xmlns="http://www.w3.org/2000/svg" xmlns:xlink="http://www.w3.org/1999/xlink" x="0px" y="0px"
	 viewBox="0 0 1554.21 1121.12" enable-background="new 0 0 1554.21 1121.12" xml:space="preserve">
<title>star-bg</title>
<g>
	<path fill-rule="evenodd" clip-rule="evenodd" fill="#D15D64" d="M574.53,92.12l2.76,1.51c0.19,0.11,0.26,0.34,0.15,0.54
		c-0.04,0.07-0.09,0.12-0.15,0.15l-2.76,1.51c-0.07,0.04-0.12,0.09-0.16,0.16l-1.51,2.76c-0.1,0.19-0.34,0.26-0.53,0.16
		c-0.07-0.04-0.12-0.09-0.16-0.16l-1.51-2.75c-0.04-0.07-0.09-0.12-0.16-0.16l-2.76-1.5c-0.19-0.11-0.26-0.34-0.15-0.54
		c0.04-0.07,0.09-0.12,0.15-0.15l2.76-1.51c0.07-0.04,0.12-0.09,0.16-0.16l1.51-2.75c0.1-0.19,0.34-0.26,0.53-0.16
		c0.07,0.04,0.12,0.09,0.16,0.16l1.51,2.75C574.41,92.03,574.46,92.08,574.53,92.12"/>
	<path fill-rule="evenodd" clip-rule="evenodd" fill="#FCD05C" d="M95.61,166.72l1.36,0.74c0.19,0.11,0.26,0.35,0.16,0.54
		c-0.04,0.07-0.09,0.12-0.16,0.16l-1.36,0.74c-0.07,0.04-0.12,0.09-0.16,0.16l-0.74,1.36c-0.1,0.19-0.34,0.26-0.53,0.16
		c-0.07-0.04-0.12-0.09-0.16-0.16l-0.74-1.36c-0.04-0.07-0.09-0.12-0.16-0.16l-1.36-0.74c-0.19-0.11-0.26-0.35-0.16-0.54
		c0.04-0.07,0.09-0.12,0.16-0.16l1.36-0.74c0.07-0.04,0.12-0.09,0.16-0.15l0.74-1.36c0.11-0.19,0.35-0.26,0.54-0.16
		c0.07,0.04,0.12,0.09,0.16,0.16l0.74,1.36C95.49,166.63,95.55,166.69,95.61,166.72"/>
	<path fill="none" stroke="#7B63AB" stroke-width="1.097" stroke-linecap="round" stroke-linejoin="round" d="M266.02,108
		l-1.47,1.47 M270.02,104l-1.47,1.47 M266.1,108.16c0.72,0.72,1.9,0.72,2.62,0c0.72-0.72,0.72-1.9,0-2.62s-1.9-0.72-2.62,0
		C265.37,106.27,265.37,107.44,266.1,108.16L266.1,108.16z"/>
	<path fill-rule="evenodd" clip-rule="evenodd" fill="#D15D64" d="M1248.53,208.12l2.76,1.51c0.19,0.11,0.26,0.34,0.15,0.54
		c-0.04,0.07-0.09,0.12-0.15,0.15l-2.76,1.51c-0.07,0.04-0.12,0.09-0.16,0.16l-1.51,2.75c-0.1,0.19-0.34,0.26-0.53,0.16
		c-0.07-0.04-0.12-0.09-0.16-0.16l-1.51-2.76c-0.04-0.07-0.09-0.12-0.16-0.16l-2.76-1.51c-0.19-0.11-0.26-0.34-0.15-0.54
		c0.04-0.07,0.09-0.12,0.15-0.15l2.76-1.51c0.07-0.04,0.12-0.09,0.16-0.16l1.51-2.76c0.1-0.19,0.34-0.26,0.53-0.16
		c0.07,0.04,0.12,0.09,0.16,0.16l1.51,2.76C1248.41,208.03,1248.46,208.08,1248.53,208.12"/>
	<path fill-rule="evenodd" clip-rule="evenodd" fill="#E98333" d="M1001.53,177.12l2.76,1.51c0.19,0.11,0.26,0.34,0.15,0.54
		c-0.04,0.07-0.09,0.12-0.15,0.15l-2.76,1.51c-0.07,0.04-0.12,0.09-0.16,0.16l-1.51,2.76c-0.1,0.19-0.34,0.26-0.53,0.16
		c-0.07-0.04-0.12-0.09-0.16-0.16l-1.51-2.76c-0.04-0.07-0.09-0.12-0.16-0.16l-2.75-1.51c-0.19-0.1-0.26-0.34-0.16-0.53
		c0.04-0.07,0.09-0.12,0.16-0.16l2.76-1.51c0.07-0.04,0.12-0.09,0.16-0.16l1.51-2.76c0.11-0.19,0.34-0.26,0.54-0.15
		c0.07,0.04,0.12,0.09,0.15,0.15l1.51,2.76C1001.41,177.03,1001.46,177.08,1001.53,177.12"/>
	<path fill-rule="evenodd" clip-rule="evenodd" fill="#FCD05C" d="M939.61,100.72l1.36,0.75c0.19,0.11,0.26,0.35,0.16,0.54
		c-0.04,0.07-0.09,0.12-0.16,0.16l-1.36,0.74c-0.07,0.04-0.12,0.09-0.16,0.16l-0.74,1.36c-0.1,0.19-0.34,0.26-0.53,0.16
		c-0.07-0.04-0.12-0.09-0.16-0.16l-0.74-1.36c-0.04-0.07-0.09-0.12-0.16-0.16l-1.36-0.74c-0.19-0.11-0.26-0.35-0.16-0.54
		c0.04-0.07,0.09-0.12,0.16-0.16l1.36-0.74c0.07-0.04,0.12-0.09,0.16-0.15l0.74-1.36c0.11-0.19,0.35-0.26,0.54-0.16
		c0.07,0.04,0.12,0.09,0.16,0.16l0.74,1.36C939.49,100.63,939.55,100.69,939.61,100.72"/>
	<path fill-rule="evenodd" clip-rule="evenodd" fill="#D15D64" d="M1063.36,253.91c0,1.61-1.3,2.91-2.91,2.91
		c-1.61,0-2.91-1.3-2.91-2.91s1.3-2.91,2.91-2.91C1062.06,251,1063.37,252.3,1063.36,253.91 M599.56,637.88l2.76,1.51
		c0.19,0.1,0.26,0.34,0.16,0.53c-0.04,0.07-0.09,0.12-0.16,0.16l-2.76,1.51c-0.07,0.04-0.12,0.09-0.16,0.16l-1.51,2.76
		c-0.1,0.19-0.34,0.26-0.53,0.16c-0.07-0.04-0.12-0.09-0.16-0.16l-1.51-2.76c-0.04-0.07-0.09-0.12-0.16-0.16l-2.76-1.51
		c-0.19-0.1-0.26-0.34-0.16-0.53c0.04-0.07,0.09-0.12,0.16-0.16l2.76-1.51c0.07-0.04,0.12-0.09,0.16-0.15l1.51-2.76
		c0.1-0.19,0.34-0.26,0.53-0.16c0.07,0.04,0.12,0.09,0.16,0.16l1.51,2.76C599.44,637.79,599.49,637.85,599.56,637.88"/>
	<path fill-rule="evenodd" clip-rule="evenodd" fill="#FCD05C" d="M62.61,452.72l1.36,0.74c0.19,0.11,0.26,0.35,0.16,0.54
		c-0.04,0.07-0.09,0.12-0.16,0.16l-1.36,0.74c-0.07,0.04-0.12,0.09-0.16,0.16l-0.74,1.36c-0.1,0.19-0.34,0.26-0.53,0.16
		c-0.07-0.04-0.12-0.09-0.16-0.16l-0.74-1.36c-0.04-0.07-0.09-0.12-0.16-0.16l-1.36-0.74c-0.19-0.11-0.26-0.35-0.16-0.54
		c0.04-0.07,0.09-0.12,0.16-0.16l1.36-0.74c0.07-0.04,0.12-0.09,0.16-0.15l0.74-1.36c0.11-0.19,0.35-0.26,0.54-0.16
		c0.07,0.04,0.12,0.09,0.16,0.16l0.74,1.36C62.49,452.63,62.55,452.69,62.61,452.72"/>
	<path fill-rule="evenodd" clip-rule="evenodd" fill="#D15D64" d="M1518.53,527.12l2.76,1.51c0.19,0.11,0.26,0.35,0.16,0.54
		c-0.04,0.07-0.09,0.12-0.16,0.16l-2.76,1.51c-0.07,0.04-0.12,0.09-0.16,0.16l-1.51,2.75c-0.1,0.19-0.34,0.26-0.53,0.16
		c-0.07-0.04-0.12-0.09-0.16-0.16l-1.51-2.76c-0.04-0.07-0.09-0.12-0.16-0.16l-2.75-1.51c-0.19-0.1-0.26-0.34-0.16-0.53
		c0.04-0.07,0.09-0.12,0.16-0.16l2.76-1.51c0.07-0.04,0.12-0.09,0.16-0.16l1.51-2.76c0.1-0.19,0.34-0.26,0.53-0.16
		c0.07,0.04,0.12,0.09,0.16,0.16l1.51,2.76C1518.41,527.03,1518.46,527.08,1518.53,527.12 M1233.43,100.64l1.3,0.71
		c0.26,0.14,0.26,0.52,0,0.66l-1.3,0.71c-0.06,0.03-0.11,0.09-0.15,0.15l-0.71,1.3c-0.1,0.18-0.33,0.25-0.51,0.15
		c-0.06-0.03-0.11-0.09-0.15-0.15l-0.71-1.3c-0.04-0.06-0.09-0.11-0.15-0.15l-1.3-0.71c-0.18-0.1-0.25-0.33-0.15-0.51
		c0.03-0.06,0.09-0.11,0.15-0.15l1.3-0.71c0.06-0.04,0.11-0.09,0.15-0.15l0.71-1.3c0.1-0.18,0.33-0.25,0.51-0.15
		c0.06,0.03,0.12,0.09,0.15,0.15l0.71,1.3C1233.31,100.56,1233.37,100.61,1233.43,100.64"/>
	<path fill-rule="evenodd" clip-rule="evenodd" fill="#FCD05C" d="M1490.61,382.72l1.36,0.74c0.19,0.11,0.26,0.35,0.16,0.54
		c-0.04,0.07-0.09,0.12-0.16,0.16l-1.36,0.74c-0.07,0.04-0.12,0.09-0.16,0.16l-0.74,1.36c-0.1,0.19-0.34,0.26-0.53,0.16
		c-0.07-0.04-0.12-0.09-0.16-0.16l-0.74-1.36c-0.04-0.07-0.09-0.12-0.16-0.16l-1.36-0.74c-0.19-0.11-0.26-0.35-0.16-0.54
		c0.04-0.07,0.09-0.12,0.16-0.16l1.36-0.74c0.07-0.04,0.12-0.09,0.16-0.15l0.74-1.36c0.11-0.19,0.35-0.26,0.54-0.16
		c0.07,0.04,0.12,0.09,0.16,0.16l0.74,1.36C1490.49,382.63,1490.55,382.69,1490.61,382.72"/>
	<path fill="none" stroke="#E98333" stroke-width="1.097" stroke-linecap="round" stroke-linejoin="round" d="M267.55,385.89
		l3.55-0.89l-0.89,3.55L267.55,385.89z"/>
	<path fill-rule="evenodd" clip-rule="evenodd" fill="#00A959" d="M378.78,503.02l2.02,1.1l-2.02,1.1l-1.1,2.02l-1.1-2.02l-2.02-1.1
		l2.02-1.1l1.1-2.02L378.78,503.02z"/>
	<path fill-rule="evenodd" clip-rule="evenodd" fill="#E98333" d="M387.53,40.12l2.75,1.51c0.19,0.11,0.26,0.34,0.15,0.54
		c-0.04,0.07-0.09,0.12-0.15,0.15l-2.76,1.51c-0.07,0.04-0.12,0.09-0.16,0.16l-1.51,2.76c-0.1,0.19-0.34,0.26-0.53,0.16
		c-0.07-0.04-0.12-0.09-0.16-0.16l-1.51-2.76c-0.04-0.07-0.09-0.12-0.16-0.16l-2.76-1.51c-0.19-0.1-0.26-0.34-0.16-0.53
		c0.04-0.07,0.09-0.12,0.16-0.16l2.76-1.51c0.07-0.04,0.12-0.09,0.16-0.16l1.51-2.76c0.11-0.19,0.34-0.26,0.54-0.15
		c0.07,0.04,0.12,0.09,0.15,0.15l1.51,2.76C387.41,40.03,387.46,40.08,387.53,40.12"/>
	<path fill="none" stroke="#7B63AB" stroke-width="1.097" stroke-linecap="round" stroke-linejoin="round" d="M510.41,202.26
		l-0.85-1.6c-0.04-0.08-0.1-0.14-0.18-0.18l-1.6-0.85c-0.21-0.11-0.29-0.37-0.18-0.59c0.04-0.08,0.1-0.14,0.18-0.18l1.6-0.85
		c0.08-0.04,0.14-0.1,0.18-0.18l0.85-1.6c0.11-0.21,0.37-0.29,0.59-0.18c0.08,0.04,0.14,0.1,0.18,0.18l0.85,1.6
		c0.04,0.08,0.1,0.14,0.18,0.18l1.6,0.85c0.31,0.16,0.31,0.6,0,0.77l-1.6,0.85c-0.08,0.04-0.14,0.1-0.18,0.18l-0.85,1.6
		c-0.11,0.21-0.37,0.29-0.59,0.18C510.52,202.4,510.45,202.33,510.41,202.26L510.41,202.26z"/>
	<path fill-rule="evenodd" clip-rule="evenodd" fill="#D15D64" d="M450.53,161.12l2.76,1.51c0.19,0.11,0.26,0.34,0.15,0.54
		c-0.04,0.07-0.09,0.12-0.15,0.15l-2.76,1.51c-0.07,0.04-0.12,0.09-0.16,0.16l-1.51,2.75c-0.1,0.19-0.34,0.26-0.53,0.16
		c-0.07-0.04-0.12-0.09-0.16-0.16l-1.51-2.76c-0.04-0.07-0.09-0.12-0.16-0.16l-2.76-1.51c-0.19-0.11-0.26-0.34-0.15-0.54
		c0.04-0.07,0.09-0.12,0.15-0.15l2.76-1.51c0.07-0.04,0.12-0.09,0.16-0.16l1.51-2.76c0.1-0.19,0.34-0.26,0.53-0.16
		c0.07,0.04,0.12,0.09,0.16,0.16l1.51,2.76C450.41,161.03,450.46,161.08,450.53,161.12"/>
	<path fill-rule="evenodd" clip-rule="evenodd" fill="#E98333" d="M34.53,127.12l2.75,1.51c0.19,0.11,0.26,0.34,0.15,0.54
		c-0.04,0.07-0.09,0.12-0.15,0.15l-2.76,1.51c-0.07,0.04-0.12,0.09-0.16,0.16l-1.51,2.76c-0.1,0.19-0.34,0.26-0.53,0.16
		c-0.07-0.04-0.12-0.09-0.16-0.16l-1.51-2.76c-0.04-0.07-0.09-0.12-0.16-0.16l-2.75-1.51c-0.19-0.1-0.26-0.34-0.16-0.53
		c0.04-0.07,0.09-0.12,0.16-0.16l2.75-1.51c0.07-0.04,0.12-0.09,0.16-0.16l1.51-2.75c0.11-0.19,0.34-0.26,0.54-0.15
		c0.07,0.04,0.12,0.09,0.15,0.15l1.51,2.76C34.41,127.03,34.46,127.08,34.53,127.12"/>
	<path fill-rule="evenodd" clip-rule="evenodd" fill="#D15D64" d="M156.37,56.91c0,1.61-1.3,2.91-2.91,2.91s-2.91-1.3-2.91-2.91
		s1.3-2.91,2.91-2.91S156.37,55.3,156.37,56.91"/>
	<path fill="none" stroke="#7B63AB" stroke-width="1.097" stroke-linecap="round" stroke-linejoin="round" d="M535.44,524.02
		l-0.85-1.6c-0.04-0.08-0.1-0.14-0.18-0.18l-1.6-0.85c-0.21-0.11-0.29-0.37-0.18-0.59c0.04-0.08,0.1-0.14,0.18-0.18l1.6-0.85
		c0.08-0.04,0.14-0.1,0.18-0.18l0.85-1.6c0.11-0.21,0.37-0.29,0.59-0.18c0.08,0.04,0.14,0.1,0.18,0.18l0.85,1.6
		c0.04,0.08,0.1,0.14,0.18,0.18l1.6,0.85c0.31,0.16,0.31,0.6,0,0.77l-1.6,0.85c-0.08,0.04-0.14,0.1-0.18,0.18l-0.85,1.6
		c-0.11,0.21-0.37,0.29-0.59,0.18C535.55,524.16,535.48,524.1,535.44,524.02L535.44,524.02z"/>
	<path fill-rule="evenodd" clip-rule="evenodd" fill="#D15D64" d="M789.97,357.05l2.76,1.51c0.19,0.11,0.26,0.35,0.16,0.54
		c-0.04,0.07-0.09,0.12-0.16,0.16l-2.76,1.51c-0.07,0.04-0.12,0.09-0.16,0.16l-1.51,2.76c-0.1,0.19-0.34,0.26-0.53,0.16
		c-0.07-0.04-0.12-0.09-0.16-0.16l-1.51-2.76c-0.04-0.07-0.09-0.12-0.16-0.16l-2.75-1.51c-0.19-0.1-0.26-0.34-0.16-0.53
		c0.04-0.07,0.09-0.12,0.16-0.16l2.76-1.51c0.07-0.04,0.12-0.09,0.16-0.15l1.51-2.76c0.1-0.19,0.34-0.26,0.53-0.16
		c0.07,0.04,0.12,0.09,0.16,0.16l1.51,2.76C789.85,356.96,789.91,357.02,789.97,357.05"/>
	<path fill-rule="evenodd" clip-rule="evenodd" fill="#7B63AB" d="M1493.61,223.72l1.36,0.74c0.19,0.11,0.26,0.35,0.16,0.54
		c-0.04,0.07-0.09,0.12-0.16,0.16l-1.36,0.74c-0.07,0.04-0.12,0.09-0.16,0.16l-0.74,1.36c-0.11,0.19-0.35,0.26-0.54,0.16
		c-0.07-0.04-0.12-0.09-0.16-0.16l-0.74-1.36c-0.04-0.07-0.09-0.12-0.16-0.16l-1.36-0.74c-0.19-0.11-0.26-0.35-0.16-0.54
		c0.04-0.07,0.09-0.12,0.16-0.16l1.36-0.74c0.07-0.04,0.12-0.09,0.16-0.16l0.74-1.36c0.11-0.19,0.35-0.26,0.54-0.16
		c0.07,0.04,0.12,0.09,0.16,0.16l0.74,1.36C1493.49,223.63,1493.54,223.69,1493.61,223.72"/>
	<path fill-rule="evenodd" clip-rule="evenodd" fill="#D15D64" d="M1468.43,48.65l1.3,0.71c0.26,0.15,0.26,0.52,0,0.66l-1.3,0.71
		c-0.06,0.03-0.12,0.09-0.15,0.15l-0.71,1.3c-0.1,0.18-0.33,0.25-0.51,0.15c-0.06-0.03-0.11-0.09-0.15-0.15l-0.71-1.3
		c-0.04-0.06-0.09-0.12-0.15-0.15l-1.3-0.71c-0.18-0.1-0.25-0.33-0.15-0.51c0.03-0.06,0.09-0.12,0.15-0.15l1.3-0.71
		c0.06-0.04,0.11-0.09,0.15-0.15l0.71-1.3c0.1-0.18,0.33-0.25,0.51-0.15c0.06,0.03,0.12,0.09,0.15,0.15l0.71,1.3
		C1468.31,48.56,1468.37,48.61,1468.43,48.65"/>
	<path fill-rule="evenodd" clip-rule="evenodd" fill="#FCD05C" d="M1519.61,116.72l1.36,0.75c0.19,0.11,0.26,0.35,0.16,0.54
		c-0.04,0.07-0.09,0.12-0.16,0.16l-1.36,0.74c-0.07,0.04-0.12,0.09-0.16,0.16l-0.74,1.36c-0.1,0.19-0.34,0.26-0.53,0.16
		c-0.07-0.04-0.12-0.09-0.16-0.16l-0.74-1.36c-0.04-0.07-0.09-0.12-0.16-0.16l-1.36-0.74c-0.19-0.11-0.26-0.35-0.16-0.54
		c0.04-0.07,0.09-0.12,0.16-0.16l1.36-0.74c0.07-0.04,0.12-0.09,0.16-0.15l0.74-1.36c0.11-0.19,0.35-0.26,0.54-0.16
		c0.07,0.04,0.12,0.09,0.16,0.16l0.74,1.36C1519.49,116.63,1519.55,116.69,1519.61,116.72"/>
	<g transform="translate(1580 434)">
		<defs>
			<filter id="Adobe_OpacityMaskFilter" filterUnits="userSpaceOnUse" x="-142.84" y="0.07" width="5.62" height="5.62">
				<feColorMatrix  type="matrix" values="1 0 0 0 0  0 1 0 0 0  0 0 1 0 0  0 0 0 1 0"/>
			</filter>
		</defs>
		<mask maskUnits="userSpaceOnUse" x="-142.84" y="0.07" width="5.62" height="5.62" id="b_2_">
			<g filter="url(#Adobe_OpacityMaskFilter)">
				<path id="a_2_" fill-rule="evenodd" clip-rule="evenodd" fill="#FFFFFF" d="M-137.22,0.07v5.62h-5.62V0.07L-137.22,0.07
					L-137.22,0.07z"/>
			</g>
		</mask>
		<path mask="url(#b_2_)" fill-rule="evenodd" clip-rule="evenodd" fill="#7B63AB" d="M-138.78,1.79l1.36,0.74
			c0.19,0.1,0.26,0.34,0.16,0.53c-0.04,0.07-0.09,0.12-0.16,0.16l-1.36,0.74c-0.07,0.04-0.12,0.09-0.16,0.16l-0.74,1.36
			c-0.1,0.19-0.34,0.26-0.53,0.16c-0.07-0.04-0.12-0.09-0.16-0.16l-0.74-1.36c-0.04-0.07-0.09-0.12-0.15-0.16l-1.36-0.74
			c-0.19-0.11-0.26-0.35-0.16-0.54c0.04-0.07,0.09-0.12,0.16-0.16l1.36-0.74c0.07-0.04,0.12-0.09,0.16-0.16l0.74-1.36
			c0.1-0.19,0.34-0.26,0.53-0.16c0.07,0.04,0.12,0.09,0.16,0.16l0.74,1.36C-138.9,1.7-138.85,1.75-138.78,1.79"/>
	</g>
	<path fill-rule="evenodd" clip-rule="evenodd" fill="#FCD05C" d="M1241.53,483.12l2.76,1.51c0.19,0.11,0.26,0.34,0.15,0.54
		c-0.04,0.07-0.09,0.12-0.15,0.15l-2.76,1.51c-0.07,0.04-0.12,0.09-0.16,0.16l-1.51,2.76c-0.1,0.19-0.34,0.26-0.53,0.16
		c-0.07-0.04-0.12-0.09-0.16-0.16l-1.51-2.76c-0.04-0.07-0.09-0.12-0.16-0.16l-2.76-1.51c-0.19-0.1-0.26-0.34-0.16-0.53
		c0.04-0.07,0.09-0.12,0.16-0.16l2.76-1.51c0.07-0.04,0.12-0.09,0.16-0.16l1.51-2.76c0.1-0.19,0.34-0.26,0.53-0.16
		c0.07,0.04,0.12,0.09,0.16,0.16l1.51,2.76C1241.41,483.03,1241.47,483.08,1241.53,483.12"/>
	<path fill-rule="evenodd" clip-rule="evenodd" fill="#D15D64" d="M1130.43,338.65l1.3,0.71c0.26,0.14,0.26,0.52,0,0.66l-1.3,0.71
		c-0.06,0.03-0.12,0.09-0.15,0.15l-0.71,1.3c-0.1,0.18-0.33,0.25-0.51,0.15c-0.06-0.03-0.11-0.09-0.15-0.15l-0.71-1.3
		c-0.04-0.06-0.09-0.11-0.15-0.15l-1.3-0.71c-0.18-0.1-0.25-0.33-0.15-0.51c0.03-0.06,0.09-0.11,0.15-0.15l1.3-0.71
		c0.06-0.04,0.11-0.09,0.15-0.15l0.71-1.3c0.1-0.18,0.33-0.25,0.51-0.15c0.06,0.03,0.12,0.09,0.15,0.15l0.71,1.3
		C1130.31,338.56,1130.37,338.61,1130.43,338.65"/>
	<path fill-rule="evenodd" clip-rule="evenodd" fill="#FCD05C" d="M1350.61,406.72l1.36,0.74c0.19,0.11,0.26,0.35,0.16,0.54
		c-0.04,0.07-0.09,0.12-0.16,0.16l-1.36,0.74c-0.07,0.04-0.12,0.09-0.16,0.16l-0.74,1.36c-0.1,0.19-0.34,0.26-0.53,0.16
		c-0.07-0.04-0.12-0.09-0.16-0.16l-0.74-1.36c-0.04-0.07-0.09-0.12-0.16-0.16l-1.36-0.74c-0.19-0.11-0.26-0.35-0.16-0.54
		c0.04-0.07,0.09-0.12,0.16-0.16l1.36-0.74c0.07-0.04,0.12-0.09,0.16-0.15l0.74-1.36c0.11-0.19,0.35-0.26,0.54-0.16
		c0.07,0.04,0.12,0.09,0.16,0.16l0.74,1.36C1350.49,406.63,1350.55,406.69,1350.61,406.72"/>
	<path fill="none" stroke="#00A959" stroke-width="1.097" stroke-linecap="round" stroke-linejoin="round" d="M621.14,438.64
		l1.76-0.54l1.76,0.54l-0.54-1.76l0.54-1.76l-1.76,0.54l-1.76-0.54l0.54,1.76L621.14,438.64z"/>
	<g transform="translate(1598 622)">
		<defs>
			<filter id="Adobe_OpacityMaskFilter_1_" filterUnits="userSpaceOnUse" x="-142.78" y="0.7" width="9.94" height="9.94">
				<feColorMatrix  type="matrix" values="1 0 0 0 0  0 1 0 0 0  0 0 1 0 0  0 0 0 1 0"/>
			</filter>
		</defs>
		<mask maskUnits="userSpaceOnUse" x="-142.78" y="0.7" width="9.94" height="9.94" id="d_2_">
			<g filter="url(#Adobe_OpacityMaskFilter_1_)">
				<path id="c_2_" fill-rule="evenodd" clip-rule="evenodd" fill="#FFFFFF" d="M-142.78,0.7h9.94v9.94h-9.94V0.7z"/>
			</g>
		</mask>
		<path mask="url(#d_2_)" fill-rule="evenodd" clip-rule="evenodd" fill="#D15D64" d="M-135.8,3.81l2.76,1.51
			c0.19,0.11,0.26,0.34,0.15,0.54c-0.04,0.07-0.09,0.12-0.15,0.15l-2.76,1.51c-0.07,0.04-0.12,0.09-0.16,0.16l-1.51,2.75
			c-0.11,0.19-0.34,0.26-0.54,0.15c-0.07-0.04-0.12-0.09-0.15-0.15l-1.51-2.76c-0.04-0.07-0.09-0.12-0.16-0.16l-2.76-1.51
			c-0.19-0.11-0.26-0.34-0.15-0.54c0.04-0.07,0.09-0.12,0.15-0.15l2.76-1.51c0.07-0.04,0.12-0.09,0.16-0.16l1.51-2.76
			c0.11-0.19,0.34-0.26,0.54-0.15c0.07,0.04,0.12,0.09,0.15,0.15l1.51,2.76C-135.92,3.72-135.87,3.78-135.8,3.81"/>
	</g>
	<g>
		<path fill="none" stroke="#E98333" stroke-width="1.097" stroke-linecap="round" stroke-linejoin="round" d="M555.05,831.76
			l-1.47,1.47 M559.05,827.76l-1.47,1.47 M555.13,831.93c0.72,0.72,1.9,0.72,2.62,0c0.72-0.72,0.72-1.9,0-2.62
			c-0.72-0.72-1.9-0.72-2.62,0C554.4,830.03,554.4,831.2,555.13,831.93z"/>
	</g>
	<path fill-rule="evenodd" clip-rule="evenodd" fill="#FCD05C" d="M485.61,1020.9l1.36-0.74c0.19-0.11,0.26-0.35,0.16-0.54
		c-0.04-0.07-0.09-0.12-0.16-0.16l-1.36-0.74c-0.07-0.04-0.12-0.09-0.16-0.16l-0.74-1.36c-0.1-0.19-0.34-0.26-0.53-0.16
		c-0.07,0.04-0.12,0.09-0.16,0.16l-0.74,1.36c-0.04,0.07-0.09,0.12-0.16,0.16l-1.36,0.74c-0.19,0.11-0.26,0.35-0.16,0.54
		c0.04,0.07,0.09,0.12,0.16,0.16l1.36,0.74c0.07,0.04,0.12,0.09,0.16,0.16l0.74,1.36c0.15,0.27,0.54,0.27,0.69,0l0.74-1.36
		C485.49,1020.99,485.54,1020.94,485.61,1020.9"/>
	<path fill-rule="evenodd" clip-rule="evenodd" fill="#D15D64" d="M828,1059.96c0-4.47-3.63-8.09-8.1-8.09
		c-4.47,0-8.09,3.63-8.09,8.1l0,0c0,4.47,3.63,8.09,8.1,8.09C824.38,1068.06,828,1064.43,828,1059.96 M231.53,945.82l2.76-1.51
		c0.19-0.1,0.26-0.34,0.16-0.53c-0.04-0.07-0.09-0.12-0.16-0.16l-2.76-1.51c-0.07-0.04-0.12-0.09-0.16-0.16l-1.51-2.76
		c-0.1-0.19-0.34-0.26-0.53-0.16c-0.07,0.04-0.12,0.09-0.16,0.16l-1.51,2.76c-0.04,0.07-0.09,0.12-0.16,0.16l-2.75,1.51
		c-0.19,0.11-0.26,0.34-0.15,0.54c0.04,0.07,0.09,0.12,0.15,0.15l2.75,1.51c0.07,0.04,0.12,0.09,0.16,0.16l1.51,2.75
		c0.15,0.27,0.54,0.27,0.69,0l1.51-2.76C231.41,945.91,231.46,945.86,231.53,945.82"/>
	<path fill-rule="evenodd" clip-rule="evenodd" fill="#FCD05C" d="M62.61,793.9l1.36-0.74c0.19-0.11,0.26-0.35,0.16-0.54
		c-0.04-0.07-0.09-0.12-0.16-0.16l-1.36-0.74c-0.07-0.04-0.12-0.09-0.16-0.16l-0.74-1.36c-0.1-0.19-0.34-0.26-0.53-0.16
		c-0.07,0.04-0.12,0.09-0.16,0.16l-0.74,1.36c-0.04,0.07-0.09,0.12-0.16,0.16l-1.36,0.74c-0.19,0.11-0.26,0.35-0.16,0.54
		c0.04,0.07,0.09,0.12,0.16,0.16l1.36,0.74c0.07,0.04,0.12,0.09,0.16,0.16l0.74,1.36c0.15,0.27,0.54,0.27,0.69,0l0.74-1.36
		C62.49,793.99,62.54,793.94,62.61,793.9"/>
	<path fill-rule="evenodd" clip-rule="evenodd" fill="#D15D64" d="M1312.53,1061.82l2.76-1.51c0.19-0.1,0.26-0.34,0.16-0.54
		c-0.04-0.07-0.09-0.12-0.16-0.16l-2.76-1.51c-0.07-0.04-0.12-0.09-0.16-0.16l-1.51-2.76c-0.1-0.19-0.34-0.26-0.53-0.16
		c-0.07,0.04-0.12,0.09-0.16,0.16l-1.51,2.76c-0.04,0.07-0.09,0.12-0.16,0.16l-2.75,1.51c-0.19,0.1-0.26,0.34-0.16,0.53
		c0.04,0.07,0.09,0.12,0.16,0.16l2.76,1.51c0.07,0.04,0.12,0.09,0.16,0.16l1.51,2.75c0.15,0.27,0.54,0.27,0.69,0l1.51-2.76
		C1312.41,1061.91,1312.46,1061.86,1312.53,1061.82"/>
	<path fill-rule="evenodd" clip-rule="evenodd" fill="#7B63AB" d="M1258.61,1085.9l1.36-0.74c0.19-0.11,0.26-0.35,0.16-0.54
		c-0.04-0.07-0.09-0.12-0.16-0.16l-1.36-0.74c-0.07-0.04-0.12-0.09-0.16-0.16l-0.74-1.36c-0.11-0.19-0.35-0.26-0.54-0.16
		c-0.07,0.04-0.12,0.09-0.16,0.16l-0.74,1.36c-0.04,0.07-0.09,0.12-0.16,0.16l-1.36,0.74c-0.19,0.11-0.26,0.35-0.16,0.54
		c0.04,0.07,0.09,0.12,0.16,0.16l1.36,0.74c0.07,0.04,0.12,0.09,0.16,0.16l0.74,1.36c0.15,0.27,0.54,0.27,0.69,0l0.74-1.36
		C1258.49,1085.99,1258.54,1085.94,1258.61,1085.9"/>
	<path fill="none" stroke="#E98333" stroke-width="1.097" stroke-linecap="round" stroke-linejoin="round" d="M267.55,894.67
		l3.55,0.89l-0.89-3.55L267.55,894.67z"/>
	<path fill-rule="evenodd" clip-rule="evenodd" fill="#00A959" d="M378.78,745.22l2.02-1.1l-2.02-1.1l-1.1-2.02l-1.1,2.02l-2.02,1.1
		l2.02,1.1l1.1,2.02L378.78,745.22z"/>
	<path fill-rule="evenodd" clip-rule="evenodd" fill="#E98333" d="M424.53,1045.82l2.75-1.51c0.19-0.1,0.26-0.34,0.16-0.53
		c-0.04-0.07-0.09-0.12-0.16-0.16l-2.76-1.51c-0.07-0.04-0.12-0.09-0.16-0.16l-1.51-2.76c-0.1-0.19-0.34-0.26-0.53-0.16
		c-0.07,0.04-0.12,0.09-0.16,0.16l-1.51,2.76c-0.04,0.07-0.09,0.12-0.16,0.16l-2.75,1.51c-0.19,0.1-0.26,0.34-0.16,0.53
		c0.04,0.07,0.09,0.12,0.16,0.16l2.75,1.51c0.07,0.04,0.12,0.09,0.16,0.16l1.51,2.75c0.15,0.27,0.54,0.27,0.69,0l1.51-2.76
		C424.41,1045.91,424.46,1045.86,424.53,1045.82"/>
	<path fill-rule="evenodd" clip-rule="evenodd" fill="#D15D64" d="M156.37,825.91c0-1.61-1.3-2.91-2.91-2.91s-2.91,1.3-2.91,2.91
		c0,1.61,1.3,2.91,2.91,2.91S156.37,827.51,156.37,825.91"/>
	<path fill="none" stroke="#7B63AB" stroke-width="1.097" stroke-linecap="round" stroke-linejoin="round" d="M167.41,1084.23
		l-0.85,1.6c-0.04,0.08-0.1,0.14-0.18,0.18l-1.6,0.85c-0.21,0.11-0.29,0.37-0.18,0.59c0.04,0.08,0.1,0.14,0.18,0.18l1.6,0.85
		c0.08,0.04,0.14,0.1,0.18,0.18l0.85,1.6c0.16,0.31,0.6,0.31,0.77,0l0.85-1.6c0.04-0.08,0.1-0.14,0.18-0.18l1.6-0.85
		c0.21-0.11,0.29-0.37,0.18-0.59c-0.04-0.08-0.1-0.14-0.18-0.18l-1.6-0.85c-0.08-0.04-0.14-0.1-0.18-0.18l-0.85-1.6
		c-0.11-0.21-0.37-0.29-0.59-0.18C167.52,1084.09,167.45,1084.16,167.41,1084.23L167.41,1084.23z"/>
	<path fill-rule="evenodd" clip-rule="evenodd" fill="#D15D64" d="M940.37,730.24l2.76-1.51c0.19-0.1,0.26-0.34,0.16-0.54
		c-0.04-0.07-0.09-0.12-0.16-0.16l-2.76-1.51c-0.07-0.04-0.12-0.09-0.16-0.16l-1.51-2.76c-0.1-0.19-0.34-0.26-0.53-0.16
		c-0.07,0.04-0.12,0.09-0.16,0.16l-1.51,2.76c-0.04,0.07-0.09,0.12-0.16,0.16l-2.75,1.51c-0.19,0.1-0.26,0.34-0.16,0.53
		c0.04,0.07,0.09,0.12,0.16,0.16l2.76,1.51c0.07,0.04,0.12,0.09,0.16,0.16l1.51,2.75c0.15,0.27,0.54,0.27,0.69,0l1.51-2.76
		C940.25,730.33,940.31,730.27,940.37,730.24"/>
	<path fill-rule="evenodd" clip-rule="evenodd" fill="#7B63AB" d="M701.95,783.75l2.64-1.44c0.37-0.2,0.51-0.67,0.3-1.04
		c-0.07-0.13-0.17-0.23-0.3-0.3l-2.64-1.44c-0.13-0.07-0.23-0.17-0.3-0.3l-1.44-2.64c-0.2-0.37-0.67-0.51-1.04-0.3
		c-0.13,0.07-0.23,0.17-0.3,0.3l-1.44,2.64c-0.07,0.13-0.18,0.23-0.3,0.3l-2.64,1.45c-0.37,0.2-0.51,0.67-0.3,1.04
		c0.07,0.13,0.17,0.23,0.3,0.3l2.64,1.44c0.13,0.07,0.23,0.17,0.3,0.3l1.44,2.64c0.29,0.53,1.05,0.53,1.34,0l1.44-2.64
		C701.72,783.93,701.83,783.83,701.95,783.75"/>
	<path fill-rule="evenodd" clip-rule="evenodd" fill="#D15D64" d="M1468.43,849.73l1.3-0.71c0.18-0.1,0.25-0.33,0.15-0.51
		c-0.03-0.06-0.09-0.11-0.15-0.15l-1.3-0.71c-0.06-0.03-0.12-0.09-0.15-0.15l-0.71-1.3c-0.1-0.18-0.33-0.25-0.51-0.15
		c-0.06,0.03-0.11,0.09-0.15,0.15l-0.71,1.3c-0.04,0.06-0.09,0.12-0.15,0.15l-1.3,0.71c-0.18,0.1-0.25,0.33-0.15,0.51
		c0.03,0.06,0.09,0.12,0.15,0.15l1.3,0.71c0.06,0.04,0.11,0.09,0.15,0.15l0.71,1.3c0.1,0.18,0.33,0.25,0.51,0.15
		c0.06-0.03,0.12-0.09,0.15-0.15l0.71-1.3C1468.31,849.81,1468.37,849.76,1468.43,849.73"/>
	<path fill-rule="evenodd" clip-rule="evenodd" fill="#FCD05C" d="M977.6,492.05l2.64-1.44c0.37-0.2,0.51-0.67,0.3-1.04
		c-0.07-0.13-0.17-0.23-0.3-0.3l-2.64-1.44c-0.13-0.07-0.23-0.18-0.3-0.3l-1.44-2.64c-0.2-0.37-0.67-0.51-1.04-0.31
		c-0.13,0.07-0.24,0.18-0.31,0.31l-1.44,2.64c-0.07,0.13-0.18,0.23-0.3,0.3l-2.64,1.44c-0.37,0.2-0.51,0.67-0.3,1.04
		c0.07,0.13,0.17,0.23,0.3,0.3l2.64,1.44c0.13,0.07,0.23,0.17,0.3,0.3l1.44,2.64c0.29,0.53,1.05,0.53,1.34,0l1.44-2.64
		C977.37,492.23,977.47,492.13,977.6,492.05"/>
	<g transform="matrix(1 0 0 -1 1587 986)">
		<defs>
			<filter id="Adobe_OpacityMaskFilter_2_" filterUnits="userSpaceOnUse" x="-142.84" y="-5.69" width="5.62" height="5.62">
				<feColorMatrix  type="matrix" values="1 0 0 0 0  0 1 0 0 0  0 0 1 0 0  0 0 0 1 0"/>
			</filter>
		</defs>
		<mask maskUnits="userSpaceOnUse" x="-142.84" y="-5.69" width="5.62" height="5.62" id="f_2_">
			<g filter="url(#Adobe_OpacityMaskFilter_2_)">
				<path id="e_2_" fill-rule="evenodd" clip-rule="evenodd" fill="#FFFFFF" d="M-137.22,0.07v5.62h-5.62V0.07L-137.22,0.07
					L-137.22,0.07z"/>
			</g>
		</mask>
		<path mask="url(#f_2_)" fill-rule="evenodd" clip-rule="evenodd" fill="#7B63AB" d="M-138.78,1.79l1.36,0.74
			c0.19,0.1,0.26,0.34,0.16,0.53c-0.04,0.07-0.09,0.12-0.16,0.16l-1.36,0.74c-0.07,0.04-0.12,0.09-0.16,0.16l-0.74,1.36
			c-0.1,0.19-0.34,0.26-0.53,0.16c-0.07-0.04-0.12-0.09-0.16-0.16l-0.74-1.36c-0.04-0.07-0.09-0.12-0.15-0.16l-1.36-0.74
			c-0.19-0.11-0.26-0.35-0.16-0.54c0.04-0.07,0.09-0.12,0.16-0.16l1.36-0.74c0.07-0.04,0.12-0.09,0.16-0.16l0.74-1.36
			c0.1-0.19,0.34-0.26,0.53-0.16c0.07,0.04,0.12,0.09,0.16,0.16l0.74,1.36C-138.9,1.7-138.85,1.75-138.78,1.79"/>
	</g>
	<g>
		<path fill="none" stroke="#7B63AB" stroke-width="1.097" stroke-linecap="round" stroke-linejoin="round" d="M1020.55,915
			l2.78-2.78 M1012.55,923l2.78-2.78 M1018.16,912.91c0-1-5.48,4.49-4.49,4.49c-1,0,4.49,5.48,4.49,4.49c0,1,5.48-4.49,4.49-4.49
			C1023.64,917.39,1018.16,911.91,1018.16,912.91L1018.16,912.91z"/>
	</g>
	<path fill-rule="evenodd" clip-rule="evenodd" fill="#FCD05C" d="M1241.53,770.82l2.76-1.51c0.19-0.1,0.26-0.34,0.16-0.53
		c-0.04-0.07-0.09-0.12-0.16-0.16l-2.76-1.51c-0.07-0.04-0.12-0.09-0.16-0.16l-1.51-2.76c-0.1-0.19-0.34-0.26-0.53-0.16
		c-0.07,0.04-0.12,0.09-0.16,0.16l-1.51,2.76c-0.04,0.07-0.09,0.12-0.16,0.16l-2.76,1.51c-0.19,0.1-0.26,0.34-0.16,0.53
		c0.04,0.07,0.09,0.12,0.16,0.16l2.76,1.51c0.07,0.04,0.12,0.09,0.16,0.16l1.51,2.75c0.15,0.27,0.54,0.27,0.69,0l1.51-2.76
		C1241.41,770.91,1241.47,770.86,1241.53,770.82"/>
	<path fill-rule="evenodd" clip-rule="evenodd" fill="#D15D64" d="M1130.43,962.73l1.3-0.71c0.18-0.1,0.25-0.33,0.15-0.51
		c-0.03-0.06-0.09-0.11-0.15-0.15l-1.3-0.71c-0.06-0.03-0.12-0.09-0.15-0.15l-0.71-1.3c-0.1-0.18-0.33-0.25-0.51-0.15
		c-0.06,0.03-0.11,0.09-0.15,0.15l-0.71,1.3c-0.04,0.06-0.09,0.12-0.15,0.15l-1.3,0.71c-0.18,0.1-0.25,0.33-0.15,0.51
		c0.03,0.06,0.09,0.12,0.15,0.15l1.3,0.71c0.06,0.04,0.11,0.09,0.15,0.15l0.71,1.3c0.1,0.18,0.33,0.25,0.51,0.15
		c0.06-0.03,0.12-0.09,0.15-0.15l0.71-1.3C1130.31,962.81,1130.37,962.76,1130.43,962.73"/>
	<path fill-rule="evenodd" clip-rule="evenodd" fill="#FCD05C" d="M1350.61,873.9l1.36-0.74c0.19-0.11,0.26-0.35,0.16-0.54
		c-0.04-0.07-0.09-0.12-0.16-0.16l-1.36-0.74c-0.07-0.04-0.12-0.09-0.16-0.16l-0.74-1.36c-0.1-0.19-0.34-0.26-0.53-0.16
		c-0.07,0.04-0.12,0.09-0.16,0.16l-0.74,1.36c-0.04,0.07-0.09,0.12-0.16,0.16l-1.36,0.74c-0.19,0.11-0.26,0.35-0.16,0.54
		c0.04,0.07,0.09,0.12,0.16,0.16l1.36,0.74c0.07,0.04,0.12,0.09,0.16,0.16l0.74,1.36c0.15,0.27,0.54,0.27,0.69,0l0.74-1.36
		C1350.49,873.99,1350.54,873.94,1350.61,873.9"/>
	<path fill="none" stroke="#00A959" stroke-width="1.097" stroke-linecap="round" stroke-linejoin="round" d="M779.47,580.55
		l1.76,0.54l1.76-0.54l-0.54,1.76l0.54,1.76l-1.76-0.54l-1.76,0.54l0.54-1.76L779.47,580.55z"/>
	<g>
		<path fill="none" stroke="#E98333" stroke-width="1.097" stroke-linecap="round" stroke-linejoin="round" d="M187.02,631
			l-1.47-1.47 M191.02,635l-1.47-1.47 M187.1,630.84c0.72-0.72,1.9-0.72,2.62,0s0.72,1.9,0,2.62s-1.9,0.72-2.62,0
			S186.37,631.56,187.1,630.84L187.1,630.84z"/>
	</g>
	<g>
		<path fill="none" stroke="#E98333" stroke-width="1.097" stroke-linecap="round" stroke-linejoin="round" d="M516.87,334.57
			l-2.83-2.82 M524.54,342.25l-2.82-2.82 M517,334.26c1.39-1.39,3.64-1.39,5.03,0c1.39,1.39,1.39,3.64,0,5.03
			c-1.39,1.39-3.64,1.39-5.03,0C515.61,337.9,515.61,335.65,517,334.26L517,334.26z"/>
	</g>
</g>
</svg>
