<?xml version="1.0" encoding="utf-8"?>
<!-- Generator: Adobe Illustrator 23.1.1, SVG Export Plug-In . SVG Version: 6.00 Build 0)  -->
<svg version="1.1" xmlns="http://www.w3.org/2000/svg" xmlns:xlink="http://www.w3.org/1999/xlink" x="0px" y="0px"
	 viewBox="0 0 1554.21 1121.12" enable-background="new 0 0 1554.21 1121.12" xml:space="preserve">
<g id="圖層_1">
	<title>star-bg</title>
	<g>
		<path fill-rule="evenodd" clip-rule="evenodd" fill="#D15D64" d="M574.53,92.12l2.76,1.51c0.19,0.11,0.26,0.34,0.15,0.54
			c-0.04,0.07-0.09,0.12-0.15,0.15l-2.76,1.51c-0.07,0.04-0.12,0.09-0.16,0.16l-1.51,2.76c-0.1,0.19-0.34,0.26-0.53,0.16
			c-0.07-0.04-0.12-0.09-0.16-0.16l-1.51-2.75c-0.04-0.07-0.09-0.12-0.16-0.16l-2.76-1.5c-0.19-0.11-0.26-0.34-0.15-0.54
			c0.04-0.07,0.09-0.12,0.15-0.15l2.76-1.51c0.07-0.04,0.12-0.09,0.16-0.16l1.51-2.75c0.1-0.19,0.34-0.26,0.53-0.16
			c0.07,0.04,0.12,0.09,0.16,0.16l1.51,2.75C574.41,92.03,574.46,92.08,574.53,92.12"/>
		<path fill-rule="evenodd" clip-rule="evenodd" fill="#FCD05C" d="M939.61,100.72l1.36,0.75c0.19,0.11,0.26,0.35,0.16,0.54
			c-0.04,0.07-0.09,0.12-0.16,0.16l-1.36,0.74c-0.07,0.04-0.12,0.09-0.16,0.16l-0.74,1.36c-0.1,0.19-0.34,0.26-0.53,0.16
			c-0.07-0.04-0.12-0.09-0.16-0.16l-0.74-1.36c-0.04-0.07-0.09-0.12-0.16-0.16l-1.36-0.74c-0.19-0.11-0.26-0.35-0.16-0.54
			c0.04-0.07,0.09-0.12,0.16-0.16l1.36-0.74c0.07-0.04,0.12-0.09,0.16-0.15l0.74-1.36c0.11-0.19,0.35-0.26,0.54-0.16
			c0.07,0.04,0.12,0.09,0.16,0.16l0.74,1.36C939.49,100.63,939.55,100.69,939.61,100.72"/>
		<path fill-rule="evenodd" clip-rule="evenodd" fill="#D15D64" d="M1063.36,253.91c0,1.61-1.3,2.91-2.91,2.91
			c-1.61,0-2.91-1.3-2.91-2.91s1.3-2.91,2.91-2.91C1062.06,251,1063.37,252.3,1063.36,253.91"/>
		<path fill-rule="evenodd" clip-rule="evenodd" fill="#FCD05C" d="M102.61,432.72l1.36,0.74c0.19,0.11,0.26,0.35,0.16,0.54
			c-0.04,0.07-0.09,0.12-0.16,0.16l-1.36,0.74c-0.07,0.04-0.12,0.09-0.16,0.16l-0.74,1.36c-0.1,0.19-0.34,0.26-0.53,0.16
			c-0.07-0.04-0.12-0.09-0.16-0.16l-0.74-1.36c-0.04-0.07-0.09-0.12-0.16-0.16l-1.36-0.74c-0.19-0.11-0.26-0.35-0.16-0.54
			c0.04-0.07,0.09-0.12,0.16-0.16l1.36-0.74c0.07-0.04,0.12-0.09,0.16-0.15l0.74-1.36c0.11-0.19,0.35-0.26,0.54-0.16
			c0.07,0.04,0.12,0.09,0.16,0.16l0.74,1.36C102.49,432.63,102.55,432.69,102.61,432.72"/>
		<path fill-rule="evenodd" clip-rule="evenodd" fill="#D15D64" d="M1518.53,527.12l2.76,1.51c0.19,0.11,0.26,0.35,0.16,0.54
			c-0.04,0.07-0.09,0.12-0.16,0.16l-2.76,1.51c-0.07,0.04-0.12,0.09-0.16,0.16l-1.51,2.75c-0.1,0.19-0.34,0.26-0.53,0.16
			c-0.07-0.04-0.12-0.09-0.16-0.16l-1.51-2.76c-0.04-0.07-0.09-0.12-0.16-0.16l-2.75-1.51c-0.19-0.1-0.26-0.34-0.16-0.53
			c0.04-0.07,0.09-0.12,0.16-0.16l2.76-1.51c0.07-0.04,0.12-0.09,0.16-0.16l1.51-2.76c0.1-0.19,0.34-0.26,0.53-0.16
			c0.07,0.04,0.12,0.09,0.16,0.16l1.51,2.76C1518.41,527.03,1518.46,527.08,1518.53,527.12 M1233.43,100.64l1.3,0.71
			c0.26,0.14,0.26,0.52,0,0.66l-1.3,0.71c-0.06,0.03-0.11,0.09-0.15,0.15l-0.71,1.3c-0.1,0.18-0.33,0.25-0.51,0.15
			c-0.06-0.03-0.11-0.09-0.15-0.15l-0.71-1.3c-0.04-0.06-0.09-0.11-0.15-0.15l-1.3-0.71c-0.18-0.1-0.25-0.33-0.15-0.51
			c0.03-0.06,0.09-0.11,0.15-0.15l1.3-0.71c0.06-0.04,0.11-0.09,0.15-0.15l0.71-1.3c0.1-0.18,0.33-0.25,0.51-0.15
			c0.06,0.03,0.12,0.09,0.15,0.15l0.71,1.3C1233.31,100.56,1233.37,100.61,1233.43,100.64"/>
		<path fill-rule="evenodd" clip-rule="evenodd" fill="#FCD05C" d="M1490.61,382.72l1.36,0.74c0.19,0.11,0.26,0.35,0.16,0.54
			c-0.04,0.07-0.09,0.12-0.16,0.16l-1.36,0.74c-0.07,0.04-0.12,0.09-0.16,0.16l-0.74,1.36c-0.1,0.19-0.34,0.26-0.53,0.16
			c-0.07-0.04-0.12-0.09-0.16-0.16l-0.74-1.36c-0.04-0.07-0.09-0.12-0.16-0.16l-1.36-0.74c-0.19-0.11-0.26-0.35-0.16-0.54
			c0.04-0.07,0.09-0.12,0.16-0.16l1.36-0.74c0.07-0.04,0.12-0.09,0.16-0.15l0.74-1.36c0.11-0.19,0.35-0.26,0.54-0.16
			c0.07,0.04,0.12,0.09,0.16,0.16l0.74,1.36C1490.49,382.63,1490.55,382.69,1490.61,382.72"/>
		<path fill="none" stroke="#E98333" stroke-width="1.097" stroke-linecap="round" stroke-linejoin="round" d="M267.55,385.89
			l3.55-0.89l-0.89,3.55L267.55,385.89z"/>
		<path fill-rule="evenodd" clip-rule="evenodd" fill="#E98333" d="M387.53,40.12l2.75,1.51c0.19,0.11,0.26,0.34,0.15,0.54
			c-0.04,0.07-0.09,0.12-0.15,0.15l-2.76,1.51c-0.07,0.04-0.12,0.09-0.16,0.16l-1.51,2.76c-0.1,0.19-0.34,0.26-0.53,0.16
			c-0.07-0.04-0.12-0.09-0.16-0.16l-1.51-2.76c-0.04-0.07-0.09-0.12-0.16-0.16l-2.76-1.51c-0.19-0.1-0.26-0.34-0.16-0.53
			c0.04-0.07,0.09-0.12,0.16-0.16l2.76-1.51c0.07-0.04,0.12-0.09,0.16-0.16l1.51-2.76c0.11-0.19,0.34-0.26,0.54-0.15
			c0.07,0.04,0.12,0.09,0.15,0.15l1.51,2.76C387.41,40.03,387.46,40.08,387.53,40.12"/>
		<path fill-rule="evenodd" clip-rule="evenodd" fill="#E98333" d="M44.53,257.12l2.75,1.51c0.19,0.11,0.26,0.34,0.15,0.54
			c-0.04,0.07-0.09,0.12-0.15,0.15l-2.76,1.51c-0.07,0.04-0.12,0.09-0.16,0.16l-1.51,2.76c-0.1,0.19-0.34,0.26-0.53,0.16
			c-0.07-0.04-0.12-0.09-0.16-0.16l-1.51-2.76c-0.04-0.07-0.09-0.12-0.16-0.16l-2.75-1.51c-0.19-0.1-0.26-0.34-0.16-0.53
			c0.04-0.07,0.09-0.12,0.16-0.16l2.75-1.51c0.07-0.04,0.12-0.09,0.16-0.16l1.51-2.76c0.11-0.19,0.34-0.26,0.54-0.15
			c0.07,0.04,0.12,0.09,0.15,0.15l1.51,2.76C44.41,257.03,44.46,257.08,44.53,257.12"/>
		<path fill="none" stroke="#7B63AB" stroke-width="1.097" stroke-linecap="round" stroke-linejoin="round" d="M535.44,524.02
			l-0.85-1.6c-0.04-0.08-0.1-0.14-0.18-0.18l-1.6-0.85c-0.21-0.11-0.29-0.37-0.18-0.59c0.04-0.08,0.1-0.14,0.18-0.18l1.6-0.85
			c0.08-0.04,0.14-0.1,0.18-0.18l0.85-1.6c0.11-0.21,0.37-0.29,0.59-0.18c0.08,0.04,0.14,0.1,0.18,0.18l0.85,1.6
			c0.04,0.08,0.1,0.14,0.18,0.18l1.6,0.85c0.31,0.16,0.31,0.6,0,0.77l-1.6,0.85c-0.08,0.04-0.14,0.1-0.18,0.18l-0.85,1.6
			c-0.11,0.21-0.37,0.29-0.59,0.18C535.55,524.16,535.48,524.1,535.44,524.02L535.44,524.02z"/>
		<path fill-rule="evenodd" clip-rule="evenodd" fill="#FCD05C" d="M1350.61,406.72l1.36,0.74c0.19,0.11,0.26,0.35,0.16,0.54
			c-0.04,0.07-0.09,0.12-0.16,0.16l-1.36,0.74c-0.07,0.04-0.12,0.09-0.16,0.16l-0.74,1.36c-0.1,0.19-0.34,0.26-0.53,0.16
			c-0.07-0.04-0.12-0.09-0.16-0.16l-0.74-1.36c-0.04-0.07-0.09-0.12-0.16-0.16l-1.36-0.74c-0.19-0.11-0.26-0.35-0.16-0.54
			c0.04-0.07,0.09-0.12,0.16-0.16l1.36-0.74c0.07-0.04,0.12-0.09,0.16-0.15l0.74-1.36c0.11-0.19,0.35-0.26,0.54-0.16
			c0.07,0.04,0.12,0.09,0.16,0.16l0.74,1.36C1350.49,406.63,1350.55,406.69,1350.61,406.72"/>
		<path fill-rule="evenodd" clip-rule="evenodd" fill="#FCD05C" d="M485.61,1020.9l1.36-0.74c0.19-0.11,0.26-0.35,0.16-0.54
			c-0.04-0.07-0.09-0.12-0.16-0.16l-1.36-0.74c-0.07-0.04-0.12-0.09-0.16-0.16l-0.74-1.36c-0.1-0.19-0.34-0.26-0.53-0.16
			c-0.07,0.04-0.12,0.09-0.16,0.16l-0.74,1.36c-0.04,0.07-0.09,0.12-0.16,0.16l-1.36,0.74c-0.19,0.11-0.26,0.35-0.16,0.54
			c0.04,0.07,0.09,0.12,0.16,0.16l1.36,0.74c0.07,0.04,0.12,0.09,0.16,0.16l0.74,1.36c0.15,0.27,0.54,0.27,0.69,0l0.74-1.36
			C485.49,1020.99,485.54,1020.94,485.61,1020.9"/>
		<path fill-rule="evenodd" clip-rule="evenodd" fill="#D15D64" d="M231.53,945.82l2.76-1.51c0.19-0.1,0.26-0.34,0.16-0.53
			c-0.04-0.07-0.09-0.12-0.16-0.16l-2.76-1.51c-0.07-0.04-0.12-0.09-0.16-0.16l-1.51-2.76c-0.1-0.19-0.34-0.26-0.53-0.16
			c-0.07,0.04-0.12,0.09-0.16,0.16l-1.51,2.76c-0.04,0.07-0.09,0.12-0.16,0.16l-2.75,1.51c-0.19,0.11-0.26,0.34-0.15,0.54
			c0.04,0.07,0.09,0.12,0.15,0.15l2.75,1.51c0.07,0.04,0.12,0.09,0.16,0.16l1.51,2.75c0.15,0.27,0.54,0.27,0.69,0l1.51-2.76
			C231.41,945.91,231.46,945.86,231.53,945.82"/>
		<path fill-rule="evenodd" clip-rule="evenodd" fill="#FCD05C" d="M62.61,793.9l1.36-0.74c0.19-0.11,0.26-0.35,0.16-0.54
			c-0.04-0.07-0.09-0.12-0.16-0.16l-1.36-0.74c-0.07-0.04-0.12-0.09-0.16-0.16l-0.74-1.36c-0.1-0.19-0.34-0.26-0.53-0.16
			c-0.07,0.04-0.12,0.09-0.16,0.16l-0.74,1.36c-0.04,0.07-0.09,0.12-0.16,0.16l-1.36,0.74c-0.19,0.11-0.26,0.35-0.16,0.54
			c0.04,0.07,0.09,0.12,0.16,0.16l1.36,0.74c0.07,0.04,0.12,0.09,0.16,0.16l0.74,1.36c0.15,0.27,0.54,0.27,0.69,0l0.74-1.36
			C62.49,793.99,62.54,793.94,62.61,793.9"/>
		<path fill-rule="evenodd" clip-rule="evenodd" fill="#D15D64" d="M1312.53,1061.82l2.76-1.51c0.19-0.1,0.26-0.34,0.16-0.54
			c-0.04-0.07-0.09-0.12-0.16-0.16l-2.76-1.51c-0.07-0.04-0.12-0.09-0.16-0.16l-1.51-2.76c-0.1-0.19-0.34-0.26-0.53-0.16
			c-0.07,0.04-0.12,0.09-0.16,0.16l-1.51,2.76c-0.04,0.07-0.09,0.12-0.16,0.16l-2.75,1.51c-0.19,0.1-0.26,0.34-0.16,0.53
			c0.04,0.07,0.09,0.12,0.16,0.16l2.76,1.51c0.07,0.04,0.12,0.09,0.16,0.16l1.51,2.75c0.15,0.27,0.54,0.27,0.69,0l1.51-2.76
			C1312.41,1061.91,1312.46,1061.86,1312.53,1061.82"/>
		<path fill-rule="evenodd" clip-rule="evenodd" fill="#7B63AB" d="M1256.12,1085.9c0.07,0.04,0.12,0.09,0.16,0.16"/>
		<path fill-rule="evenodd" clip-rule="evenodd" fill="#7B63AB" d="M1256.27,1083.57c-0.04,0.07-0.09,0.12-0.16,0.16"/>
		<path fill-rule="evenodd" clip-rule="evenodd" fill="#E98333" d="M424.53,1045.82l2.75-1.51c0.19-0.1,0.26-0.34,0.16-0.53
			c-0.04-0.07-0.09-0.12-0.16-0.16l-2.76-1.51c-0.07-0.04-0.12-0.09-0.16-0.16l-1.51-2.76c-0.1-0.19-0.34-0.26-0.53-0.16
			c-0.07,0.04-0.12,0.09-0.16,0.16l-1.51,2.76c-0.04,0.07-0.09,0.12-0.16,0.16l-2.75,1.51c-0.19,0.1-0.26,0.34-0.16,0.53
			c0.04,0.07,0.09,0.12,0.16,0.16l2.75,1.51c0.07,0.04,0.12,0.09,0.16,0.16l1.51,2.75c0.15,0.27,0.54,0.27,0.69,0l1.51-2.76
			C424.41,1045.91,424.46,1045.86,424.53,1045.82"/>
		<path fill-rule="evenodd" clip-rule="evenodd" fill="#D15D64" d="M1468.43,849.73l1.3-0.71c0.18-0.1,0.25-0.33,0.15-0.51
			c-0.03-0.06-0.09-0.11-0.15-0.15l-1.3-0.71c-0.06-0.03-0.12-0.09-0.15-0.15l-0.71-1.3c-0.1-0.18-0.33-0.25-0.51-0.15
			c-0.06,0.03-0.11,0.09-0.15,0.15l-0.71,1.3c-0.04,0.06-0.09,0.12-0.15,0.15l-1.3,0.71c-0.18,0.1-0.25,0.33-0.15,0.51
			c0.03,0.06,0.09,0.12,0.15,0.15l1.3,0.71c0.06,0.04,0.11,0.09,0.15,0.15l0.71,1.3c0.1,0.18,0.33,0.25,0.51,0.15
			c0.06-0.03,0.12-0.09,0.15-0.15l0.71-1.3C1468.31,849.81,1468.37,849.76,1468.43,849.73"/>
		<g transform="matrix(1 0 0 -1 1587 986)">
			<defs>
				<filter id="Adobe_OpacityMaskFilter" filterUnits="userSpaceOnUse" x="-142.84" y="-5.69" width="5.62" height="5.62">
					<feColorMatrix  type="matrix" values="1 0 0 0 0  0 1 0 0 0  0 0 1 0 0  0 0 0 1 0"/>
				</filter>
			</defs>
			<mask maskUnits="userSpaceOnUse" x="-142.84" y="-5.69" width="5.62" height="5.62" id="f_2_">
				<g filter="url(#Adobe_OpacityMaskFilter)">
					<path id="e_2_" fill-rule="evenodd" clip-rule="evenodd" fill="#FFFFFF" d="M-137.22,0.07v5.62h-5.62V0.07L-137.22,0.07
						L-137.22,0.07z"/>
				</g>
			</mask>
			<path mask="url(#f_2_)" fill-rule="evenodd" clip-rule="evenodd" fill="#7B63AB" d="M-138.78,1.79l1.36,0.74
				c0.19,0.1,0.26,0.34,0.16,0.53c-0.04,0.07-0.09,0.12-0.16,0.16l-1.36,0.74c-0.07,0.04-0.12,0.09-0.16,0.16l-0.74,1.36
				c-0.1,0.19-0.34,0.26-0.53,0.16c-0.07-0.04-0.12-0.09-0.16-0.16l-0.74-1.36c-0.04-0.07-0.09-0.12-0.15-0.16l-1.36-0.74
				c-0.19-0.11-0.26-0.35-0.16-0.54c0.04-0.07,0.09-0.12,0.16-0.16l1.36-0.74c0.07-0.04,0.12-0.09,0.16-0.16l0.74-1.36
				c0.1-0.19,0.34-0.26,0.53-0.16c0.07,0.04,0.12,0.09,0.16,0.16l0.74,1.36C-138.9,1.7-138.85,1.75-138.78,1.79"/>
		</g>
		<path fill-rule="evenodd" clip-rule="evenodd" fill="#D15D64" d="M1130.43,962.73l1.3-0.71c0.18-0.1,0.25-0.33,0.15-0.51
			c-0.03-0.06-0.09-0.11-0.15-0.15l-1.3-0.71c-0.06-0.03-0.12-0.09-0.15-0.15l-0.71-1.3c-0.1-0.18-0.33-0.25-0.51-0.15
			c-0.06,0.03-0.11,0.09-0.15,0.15l-0.71,1.3c-0.04,0.06-0.09,0.12-0.15,0.15l-1.3,0.71c-0.18,0.1-0.25,0.33-0.15,0.51
			c0.03,0.06,0.09,0.12,0.15,0.15l1.3,0.71c0.06,0.04,0.11,0.09,0.15,0.15l0.71,1.3c0.1,0.18,0.33,0.25,0.51,0.15
			c0.06-0.03,0.12-0.09,0.15-0.15l0.71-1.3C1130.31,962.81,1130.37,962.76,1130.43,962.73"/>
		<path fill-rule="evenodd" clip-rule="evenodd" fill="#FCD05C" d="M1350.61,873.9l1.36-0.74c0.19-0.11,0.26-0.35,0.16-0.54
			c-0.04-0.07-0.09-0.12-0.16-0.16l-1.36-0.74c-0.07-0.04-0.12-0.09-0.16-0.16l-0.74-1.36c-0.1-0.19-0.34-0.26-0.53-0.16
			c-0.07,0.04-0.12,0.09-0.16,0.16l-0.74,1.36c-0.04,0.07-0.09,0.12-0.16,0.16l-1.36,0.74c-0.19,0.11-0.26,0.35-0.16,0.54
			c0.04,0.07,0.09,0.12,0.16,0.16l1.36,0.74c0.07,0.04,0.12,0.09,0.16,0.16l0.74,1.36c0.15,0.27,0.54,0.27,0.69,0l0.74-1.36
			C1350.49,873.99,1350.54,873.94,1350.61,873.9"/>
		<path fill="none" stroke="#00A959" stroke-width="1.097" stroke-linecap="round" stroke-linejoin="round" d="M779.47,580.55
			l1.76,0.54l1.76-0.54l-0.54,1.76l0.54,1.76l-1.76-0.54l-1.76,0.54l0.54-1.76L779.47,580.55z"/>
		<g>
			<path fill="none" stroke="#E98333" stroke-width="1.097" stroke-linecap="round" stroke-linejoin="round" d="M516.87,334.57
				l-2.83-2.82 M524.54,342.25l-2.82-2.82 M517,334.26c1.39-1.39,3.64-1.39,5.03,0c1.39,1.39,1.39,3.64,0,5.03
				c-1.39,1.39-3.64,1.39-5.03,0C515.61,337.9,515.61,335.65,517,334.26L517,334.26z"/>
		</g>
	</g>
</g>
<g id="圖層_2" display="none">
	<path display="inline" fill="none" stroke="#7B63AB" stroke-width="1.097" stroke-linecap="round" stroke-linejoin="round" d="
		M150.48,179.86l-1.47,1.47 M154.48,175.86l-1.47,1.47 M150.56,180.02c0.72,0.72,1.9,0.72,2.62,0c0.72-0.72,0.72-1.9,0-2.62
		s-1.9-0.72-2.62,0C149.83,178.13,149.83,179.3,150.56,180.02L150.56,180.02z"/>
	<path display="inline" fill-rule="evenodd" clip-rule="evenodd" fill="#D15D64" d="M464.02,669.74l2.76,1.51
		c0.19,0.1,0.26,0.34,0.16,0.53c-0.04,0.07-0.09,0.12-0.16,0.16l-2.76,1.51c-0.07,0.04-0.12,0.09-0.16,0.16l-1.51,2.76
		c-0.1,0.19-0.34,0.26-0.53,0.16c-0.07-0.04-0.12-0.09-0.16-0.16l-1.51-2.76c-0.04-0.07-0.09-0.12-0.16-0.16l-2.76-1.51
		c-0.19-0.1-0.26-0.34-0.16-0.53c0.04-0.07,0.09-0.12,0.16-0.16l2.76-1.51c0.07-0.04,0.12-0.09,0.16-0.16l1.51-2.76
		c0.1-0.19,0.34-0.26,0.53-0.16c0.07,0.04,0.12,0.09,0.16,0.16l1.51,2.76C463.9,669.65,463.96,669.71,464.02,669.74"/>
	<path display="inline" fill-rule="evenodd" clip-rule="evenodd" fill="#D15D64" d="M314.99,192.98l2.76,1.51
		c0.19,0.11,0.26,0.34,0.15,0.54c-0.04,0.07-0.09,0.12-0.15,0.15l-2.76,1.51c-0.07,0.04-0.12,0.09-0.16,0.16l-1.51,2.75
		c-0.1,0.19-0.34,0.26-0.53,0.16c-0.07-0.04-0.12-0.09-0.16-0.16l-1.51-2.76c-0.04-0.07-0.09-0.12-0.16-0.16l-2.76-1.51
		c-0.19-0.11-0.26-0.34-0.15-0.54c0.04-0.07,0.09-0.12,0.15-0.15l2.76-1.51c0.07-0.04,0.12-0.09,0.16-0.16l1.51-2.76
		c0.1-0.19,0.34-0.26,0.53-0.16c0.07,0.04,0.12,0.09,0.16,0.16l1.51,2.76C314.87,192.89,314.92,192.94,314.99,192.98"/>
	<path display="inline" fill-rule="evenodd" clip-rule="evenodd" fill="#D15D64" d="M654.44,388.91l2.76,1.51
		c0.19,0.11,0.26,0.35,0.16,0.54c-0.04,0.07-0.09,0.12-0.16,0.16l-2.76,1.51c-0.07,0.04-0.12,0.09-0.16,0.16l-1.51,2.76
		c-0.1,0.19-0.34,0.26-0.53,0.16c-0.07-0.04-0.12-0.09-0.16-0.16l-1.51-2.76c-0.04-0.07-0.09-0.12-0.16-0.16l-2.75-1.51
		c-0.19-0.1-0.26-0.34-0.16-0.53c0.04-0.07,0.09-0.12,0.16-0.16l2.76-1.51c0.07-0.04,0.12-0.09,0.16-0.15l1.51-2.76
		c0.1-0.19,0.34-0.26,0.53-0.16c0.07,0.04,0.12,0.09,0.16,0.16l1.51,2.76C654.32,388.82,654.37,388.88,654.44,388.91"/>
	<path display="inline" fill-rule="evenodd" clip-rule="evenodd" fill="#7B63AB" d="M1358.07,255.58l1.36,0.74
		c0.19,0.11,0.26,0.35,0.16,0.54c-0.04,0.07-0.09,0.12-0.16,0.16l-1.36,0.74c-0.07,0.04-0.12,0.09-0.16,0.16l-0.74,1.36
		c-0.11,0.19-0.35,0.26-0.54,0.16c-0.07-0.04-0.12-0.09-0.16-0.16l-0.74-1.36c-0.04-0.07-0.09-0.12-0.16-0.16l-1.36-0.74
		c-0.19-0.11-0.26-0.35-0.16-0.54c0.04-0.07,0.09-0.12,0.16-0.16l1.36-0.74c0.07-0.04,0.12-0.09,0.16-0.16l0.74-1.36
		c0.11-0.19,0.35-0.26,0.54-0.16c0.07,0.04,0.12,0.09,0.16,0.16l0.74,1.36C1357.95,255.49,1358.01,255.55,1358.07,255.58"/>
	<path display="inline" fill-rule="evenodd" clip-rule="evenodd" fill="#D15D64" d="M994.89,370.51l1.3,0.71
		c0.26,0.14,0.26,0.52,0,0.66l-1.3,0.71c-0.06,0.03-0.12,0.09-0.15,0.15l-0.71,1.3c-0.1,0.18-0.33,0.25-0.51,0.15
		c-0.06-0.03-0.11-0.09-0.15-0.15l-0.71-1.3c-0.04-0.06-0.09-0.11-0.15-0.15l-1.3-0.71c-0.18-0.1-0.25-0.33-0.15-0.51
		c0.03-0.06,0.09-0.11,0.15-0.15l1.3-0.71c0.06-0.04,0.11-0.09,0.15-0.15l0.71-1.3c0.1-0.18,0.33-0.25,0.51-0.15
		c0.06,0.03,0.12,0.09,0.15,0.15l0.71,1.3C994.77,370.42,994.83,370.47,994.89,370.51"/>
	<g transform="translate(1598 622)" display="inline">
		<defs>
			<filter id="Adobe_OpacityMaskFilter_1_" filterUnits="userSpaceOnUse" x="-278.32" y="32.56" width="9.94" height="9.94">
				<feColorMatrix  type="matrix" values="1 0 0 0 0  0 1 0 0 0  0 0 1 0 0  0 0 0 1 0"/>
			</filter>
		</defs>
		<mask maskUnits="userSpaceOnUse" x="-278.32" y="32.56" width="9.94" height="9.94" id="d_1_">
			<g filter="url(#Adobe_OpacityMaskFilter_1_)">
				<path id="c_1_" fill-rule="evenodd" clip-rule="evenodd" fill="#FFFFFF" d="M-278.32,32.56h9.94v9.94h-9.94V32.56z"/>
			</g>
		</mask>
		<path mask="url(#d_1_)" fill-rule="evenodd" clip-rule="evenodd" fill="#D15D64" d="M-271.34,35.67l2.76,1.51
			c0.19,0.11,0.26,0.34,0.15,0.54c-0.04,0.07-0.09,0.12-0.15,0.15l-2.76,1.51c-0.07,0.04-0.12,0.09-0.16,0.16l-1.51,2.75
			c-0.11,0.19-0.34,0.26-0.54,0.15c-0.07-0.04-0.12-0.09-0.15-0.15l-1.51-2.75c-0.04-0.07-0.09-0.12-0.16-0.16l-2.76-1.51
			c-0.19-0.11-0.26-0.34-0.15-0.54c0.04-0.07,0.09-0.12,0.15-0.15l2.76-1.51c0.07-0.04,0.12-0.09,0.16-0.16l1.51-2.76
			c0.11-0.19,0.34-0.26,0.54-0.15c0.07,0.04,0.12,0.09,0.15,0.15l1.51,2.76C-271.46,35.58-271.41,35.64-271.34,35.67"/>
	</g>
	<path display="inline" fill-rule="evenodd" clip-rule="evenodd" fill="#D15D64" d="M692.46,1091.82c0-4.47-3.63-8.09-8.1-8.09
		c-4.47,0-8.09,3.63-8.09,8.1l0,0c0,4.47,3.63,8.09,8.1,8.09C688.84,1099.92,692.46,1096.29,692.46,1091.82"/>
	<path display="inline" fill-rule="evenodd" clip-rule="evenodd" fill="#00A959" d="M243.24,777.08l2.02-1.1l-2.02-1.1l-1.1-2.02
		l-1.1,2.02l-2.02,1.1l2.02,1.1l1.1,2.02L243.24,777.08z"/>
	<path display="inline" fill-rule="evenodd" clip-rule="evenodd" fill="#D15D64" d="M200.83,857.77c0-1.61-1.3-2.91-2.91-2.91
		s-2.91,1.3-2.91,2.91c0,1.61,1.3,2.91,2.91,2.91S200.83,859.37,200.83,857.77"/>
	<path display="inline" fill-rule="evenodd" clip-rule="evenodd" fill="#7B63AB" d="M566.41,815.61l2.64-1.44
		c0.37-0.2,0.51-0.67,0.3-1.04c-0.07-0.13-0.17-0.23-0.3-0.3l-2.64-1.44c-0.13-0.07-0.23-0.17-0.3-0.3l-1.44-2.64
		c-0.2-0.37-0.67-0.51-1.04-0.3c-0.13,0.07-0.23,0.17-0.3,0.3l-1.44,2.64c-0.07,0.13-0.18,0.23-0.3,0.3l-2.64,1.45
		c-0.37,0.2-0.51,0.67-0.3,1.04c0.07,0.13,0.17,0.23,0.3,0.3l2.64,1.44c0.13,0.07,0.23,0.17,0.3,0.3l1.44,2.64
		c0.29,0.53,1.05,0.53,1.34,0l1.44-2.64C566.18,815.79,566.29,815.69,566.41,815.61"/>
	<path display="inline" fill-rule="evenodd" clip-rule="evenodd" fill="#FCD05C" d="M1105.99,802.68l2.76-1.51
		c0.19-0.1,0.26-0.34,0.16-0.53c-0.04-0.07-0.09-0.12-0.16-0.16l-2.76-1.51c-0.07-0.04-0.12-0.09-0.16-0.16l-1.51-2.76
		c-0.1-0.19-0.34-0.26-0.53-0.16c-0.07,0.04-0.12,0.09-0.16,0.16l-1.51,2.76c-0.04,0.07-0.09,0.12-0.16,0.16l-2.76,1.51
		c-0.19,0.1-0.26,0.34-0.16,0.53c0.04,0.07,0.09,0.12,0.16,0.16l2.76,1.51c0.07,0.04,0.12,0.09,0.16,0.16l1.51,2.75
		c0.15,0.27,0.54,0.27,0.69,0l1.51-2.76C1105.87,802.77,1105.93,802.72,1105.99,802.68"/>
</g>
<g id="圖層_3" display="none">
	<path display="inline" fill-rule="evenodd" clip-rule="evenodd" fill="#FCD05C" d="M127.48,915.12l1.36,0.74
		c0.19,0.11,0.26,0.35,0.16,0.54c-0.04,0.07-0.09,0.12-0.16,0.16l-1.36,0.74c-0.07,0.04-0.12,0.09-0.16,0.16l-0.74,1.36
		c-0.1,0.19-0.34,0.26-0.53,0.16c-0.07-0.04-0.12-0.09-0.16-0.16l-0.74-1.36c-0.04-0.07-0.09-0.12-0.16-0.16l-1.36-0.74
		c-0.19-0.11-0.26-0.35-0.16-0.54c0.04-0.07,0.09-0.12,0.16-0.16l1.36-0.74c0.07-0.04,0.12-0.09,0.16-0.16l0.74-1.36
		c0.11-0.19,0.35-0.26,0.54-0.16c0.07,0.04,0.12,0.09,0.16,0.16l0.74,1.36C127.36,915.03,127.41,915.09,127.48,915.12"/>
	<path display="inline" fill="none" stroke="#7B63AB" stroke-width="1.097" stroke-linecap="round" stroke-linejoin="round" d="
		M402.28,210.66l-0.85-1.6c-0.04-0.08-0.1-0.14-0.18-0.18l-1.6-0.85c-0.21-0.11-0.29-0.37-0.18-0.59c0.04-0.08,0.1-0.14,0.18-0.18
		l1.6-0.85c0.08-0.04,0.14-0.1,0.18-0.18l0.85-1.6c0.11-0.21,0.37-0.29,0.59-0.18c0.08,0.04,0.14,0.1,0.18,0.18l0.84,1.6
		c0.04,0.08,0.1,0.14,0.18,0.18l1.6,0.85c0.31,0.16,0.31,0.6,0,0.77l-1.6,0.85c-0.08,0.04-0.14,0.1-0.18,0.18l-0.85,1.6
		c-0.11,0.21-0.37,0.29-0.59,0.18C402.38,210.8,402.32,210.73,402.28,210.66L402.28,210.66z"/>
	<path display="inline" fill-rule="evenodd" clip-rule="evenodd" fill="#D15D64" d="M88.23,65.31c0,1.61-1.3,2.91-2.91,2.91
		c-1.61,0-2.91-1.3-2.91-2.91c0-1.61,1.3-2.91,2.91-2.91S88.23,63.7,88.23,65.31"/>
	<path display="inline" fill-rule="evenodd" clip-rule="evenodd" fill="#FCD05C" d="M1411.48,125.12l1.36,0.75
		c0.19,0.11,0.26,0.35,0.16,0.54c-0.04,0.07-0.09,0.12-0.16,0.16l-1.36,0.74c-0.07,0.04-0.12,0.09-0.16,0.16l-0.74,1.36
		c-0.1,0.19-0.34,0.26-0.53,0.16c-0.07-0.04-0.12-0.09-0.16-0.16l-0.74-1.36c-0.04-0.07-0.09-0.12-0.16-0.16l-1.36-0.74
		c-0.19-0.11-0.26-0.35-0.16-0.54c0.04-0.07,0.09-0.12,0.16-0.16l1.36-0.74c0.07-0.04,0.12-0.09,0.16-0.15l0.74-1.36
		c0.11-0.19,0.35-0.26,0.54-0.16c0.07,0.04,0.12,0.09,0.16,0.16l0.74,1.36C1411.36,125.03,1411.41,125.09,1411.48,125.12"/>
	<g transform="translate(1580 434)" display="inline">
		<defs>
			<filter id="Adobe_OpacityMaskFilter_2_" filterUnits="userSpaceOnUse" x="-250.97" y="8.47" width="5.62" height="5.62">
				<feColorMatrix  type="matrix" values="1 0 0 0 0  0 1 0 0 0  0 0 1 0 0  0 0 0 1 0"/>
			</filter>
		</defs>
		<mask maskUnits="userSpaceOnUse" x="-250.97" y="8.47" width="5.62" height="5.62" id="b_1_">
			<g filter="url(#Adobe_OpacityMaskFilter_2_)">
				<path id="a_1_" fill-rule="evenodd" clip-rule="evenodd" fill="#FFFFFF" d="M-245.35,8.47v5.62h-5.62V8.47L-245.35,8.47
					L-245.35,8.47z"/>
			</g>
		</mask>
		<path mask="url(#b_1_)" fill-rule="evenodd" clip-rule="evenodd" fill="#7B63AB" d="M-246.91,10.19l1.36,0.74
			c0.19,0.1,0.26,0.34,0.16,0.53c-0.04,0.07-0.09,0.12-0.16,0.16l-1.36,0.74c-0.07,0.04-0.12,0.09-0.16,0.16l-0.74,1.36
			c-0.1,0.19-0.34,0.26-0.53,0.16c-0.07-0.04-0.12-0.09-0.16-0.16l-0.74-1.36c-0.04-0.07-0.09-0.12-0.15-0.16l-1.36-0.74
			c-0.19-0.11-0.26-0.35-0.16-0.54c0.04-0.07,0.09-0.12,0.16-0.16l1.36-0.74c0.07-0.04,0.12-0.09,0.16-0.16l0.75-1.36
			c0.1-0.19,0.34-0.26,0.53-0.16c0.07,0.04,0.12,0.09,0.16,0.16l0.74,1.36C-247.03,10.1-246.98,10.15-246.91,10.19"/>
	</g>
	<path display="inline" fill="none" stroke="#00A959" stroke-width="1.097" stroke-linecap="round" stroke-linejoin="round" d="
		M513.01,447.04l1.76-0.54l1.76,0.54l-0.54-1.76l0.54-1.76l-1.76,0.54l-1.76-0.54l0.54,1.76L513.01,447.04z"/>
	<g display="inline">
		<path fill="none" stroke="#E98333" stroke-width="1.097" stroke-linecap="round" stroke-linejoin="round" d="M446.92,840.17
			l-1.47,1.47 M450.92,836.17l-1.47,1.47 M446.99,840.33c0.72,0.72,1.9,0.72,2.62,0c0.72-0.72,0.72-1.9,0-2.62
			c-0.72-0.72-1.9-0.72-2.62,0C446.27,838.43,446.27,839.61,446.99,840.33z"/>
	</g>
	<path display="inline" fill-rule="evenodd" clip-rule="evenodd" fill="#7B63AB" d="M1148.14,1094.46l0.74,1.36
		c0.15,0.27,0.54,0.27,0.69,0l0.74-1.36c0.04-0.07,0.09-0.12,0.16-0.16"/>
	<path display="inline" fill-rule="evenodd" clip-rule="evenodd" fill="#7B63AB" d="M1147.98,1092.12l-1.36,0.74
		c-0.19,0.11-0.26,0.35-0.16,0.54c0.04,0.07,0.09,0.12,0.16,0.16l1.36,0.74"/>
	<path display="inline" fill-rule="evenodd" clip-rule="evenodd" fill="#7B63AB" d="M1150.48,1094.3l1.36-0.74
		c0.19-0.11,0.26-0.35,0.16-0.54c-0.04-0.07-0.09-0.12-0.16-0.16l-1.36-0.74c-0.07-0.04-0.12-0.09-0.16-0.16l-0.74-1.36
		c-0.11-0.19-0.35-0.26-0.54-0.16c-0.07,0.04-0.12,0.09-0.16,0.16l-0.74,1.36"/>
	<path display="inline" fill="none" stroke="#7B63AB" stroke-width="1.097" stroke-linecap="round" stroke-linejoin="round" d="
		M89.28,1082.63l-0.85,1.6c-0.04,0.08-0.1,0.14-0.18,0.18l-1.6,0.85c-0.21,0.11-0.29,0.37-0.18,0.59c0.04,0.08,0.1,0.14,0.18,0.18
		l1.6,0.85c0.08,0.04,0.14,0.1,0.18,0.18l0.85,1.6c0.16,0.31,0.6,0.31,0.77,0l0.85-1.6c0.04-0.08,0.1-0.14,0.18-0.18l1.6-0.85
		c0.21-0.11,0.29-0.37,0.18-0.59c-0.04-0.08-0.1-0.14-0.18-0.18l-1.6-0.85c-0.08-0.04-0.14-0.1-0.18-0.18l-0.85-1.6
		c-0.11-0.21-0.37-0.29-0.59-0.18C89.38,1082.49,89.32,1082.56,89.28,1082.63L89.28,1082.63z"/>
	<path display="inline" fill-rule="evenodd" clip-rule="evenodd" fill="#D15D64" d="M832.24,738.64l2.76-1.51
		c0.19-0.1,0.26-0.34,0.16-0.54c-0.04-0.07-0.09-0.12-0.16-0.16l-2.76-1.51c-0.07-0.04-0.12-0.09-0.16-0.16l-1.51-2.76
		c-0.1-0.19-0.34-0.26-0.53-0.16c-0.07,0.04-0.12,0.09-0.16,0.16l-1.51,2.76c-0.04,0.07-0.09,0.12-0.16,0.16l-2.75,1.51
		c-0.19,0.1-0.26,0.34-0.16,0.53c0.04,0.07,0.09,0.12,0.16,0.16l2.76,1.51c0.07,0.04,0.12,0.09,0.16,0.16l1.51,2.75
		c0.15,0.27,0.54,0.27,0.69,0l1.51-2.76C832.12,738.73,832.17,738.68,832.24,738.64"/>
	<path display="inline" fill-rule="evenodd" clip-rule="evenodd" fill="#D15D64" d="M924.86,248.38l2.76,1.51
		c0.19,0.11,0.26,0.34,0.15,0.54c-0.04,0.07-0.09,0.12-0.15,0.15l-2.76,1.51c-0.07,0.04-0.12,0.09-0.16,0.16l-1.51,2.75
		c-0.1,0.19-0.34,0.26-0.53,0.16c-0.07-0.04-0.12-0.09-0.16-0.16l-1.51-2.76c-0.04-0.07-0.09-0.12-0.16-0.16l-2.76-1.51
		c-0.19-0.11-0.26-0.34-0.15-0.54c0.04-0.07,0.09-0.12,0.15-0.15l2.76-1.51c0.07-0.04,0.12-0.09,0.16-0.16l1.51-2.76
		c0.1-0.19,0.34-0.26,0.53-0.16c0.07,0.04,0.12,0.09,0.16,0.16l1.51,2.76C924.74,248.29,924.79,248.34,924.86,248.38"/>
	<path display="inline" fill-rule="evenodd" clip-rule="evenodd" fill="#E98333" d="M757.86,217.38l2.76,1.51
		c0.19,0.11,0.26,0.34,0.15,0.54c-0.04,0.07-0.09,0.12-0.15,0.15l-2.76,1.51c-0.07,0.04-0.12,0.09-0.16,0.16l-1.51,2.76
		c-0.1,0.19-0.34,0.26-0.53,0.16c-0.07-0.04-0.12-0.09-0.16-0.16l-1.51-2.76c-0.04-0.07-0.09-0.12-0.16-0.16l-2.75-1.51
		c-0.19-0.1-0.26-0.34-0.16-0.53c0.04-0.07,0.09-0.12,0.16-0.16l2.76-1.51c0.07-0.04,0.12-0.09,0.16-0.16l1.51-2.76
		c0.11-0.19,0.34-0.26,0.54-0.15c0.07,0.04,0.12,0.09,0.15,0.15l1.51,2.76C757.74,217.29,757.79,217.34,757.86,217.38"/>
	<path display="inline" fill-rule="evenodd" clip-rule="evenodd" fill="#00A959" d="M205.11,543.28l2.02,1.1l-2.02,1.1l-1.1,2.02
		l-1.1-2.02l-2.02-1.1l2.02-1.1l1.1-2.02L205.11,543.28z"/>
	<path display="inline" fill-rule="evenodd" clip-rule="evenodd" fill="#D15D64" d="M1224.76,88.91l1.3,0.71
		c0.26,0.14,0.26,0.52,0,0.66l-1.3,0.71c-0.06,0.03-0.12,0.09-0.15,0.15l-0.71,1.3c-0.1,0.18-0.33,0.25-0.51,0.15
		c-0.06-0.03-0.11-0.09-0.15-0.15l-0.71-1.3c-0.04-0.06-0.09-0.12-0.15-0.15l-1.3-0.71c-0.18-0.1-0.25-0.33-0.15-0.51
		c0.03-0.06,0.09-0.12,0.15-0.15l1.3-0.71c0.06-0.04,0.11-0.09,0.15-0.15l0.71-1.3c0.1-0.18,0.33-0.25,0.51-0.15
		c0.06,0.03,0.12,0.09,0.15,0.15l0.71,1.3C1224.64,88.82,1224.69,88.87,1224.76,88.91"/>
	<path display="inline" fill-rule="evenodd" clip-rule="evenodd" fill="#FCD05C" d="M997.86,523.38l2.76,1.51
		c0.19,0.11,0.26,0.34,0.15,0.54c-0.04,0.07-0.09,0.12-0.15,0.15l-2.76,1.51c-0.07,0.04-0.12,0.09-0.16,0.16l-1.51,2.76
		c-0.1,0.19-0.34,0.26-0.53,0.16c-0.07-0.04-0.12-0.09-0.16-0.16l-1.51-2.76c-0.04-0.07-0.09-0.12-0.16-0.16l-2.76-1.51
		c-0.19-0.1-0.26-0.34-0.16-0.53c0.04-0.07,0.09-0.12,0.16-0.16l2.76-1.51c0.07-0.04,0.12-0.09,0.16-0.16l1.51-2.76
		c0.1-0.19,0.34-0.26,0.53-0.16c0.07,0.04,0.12,0.09,0.16,0.16l1.51,2.76C997.74,523.29,997.79,523.34,997.86,523.38"/>
	<path display="inline" fill="none" stroke="#E98333" stroke-width="1.097" stroke-linecap="round" stroke-linejoin="round" d="
		M143.88,334.93l3.55,0.89l-0.89-3.55L143.88,334.93z"/>
	<path display="inline" fill-rule="evenodd" clip-rule="evenodd" fill="#FCD05C" d="M733.93,532.31l2.64-1.44
		c0.37-0.2,0.51-0.67,0.3-1.04c-0.07-0.13-0.17-0.23-0.3-0.3l-2.64-1.44c-0.13-0.07-0.23-0.18-0.3-0.3l-1.44-2.64
		c-0.2-0.37-0.67-0.51-1.04-0.31c-0.13,0.07-0.24,0.18-0.31,0.31l-1.44,2.64c-0.07,0.13-0.18,0.23-0.3,0.3l-2.64,1.44
		c-0.37,0.2-0.51,0.67-0.3,1.04c0.07,0.13,0.17,0.23,0.3,0.3l2.64,1.44c0.13,0.07,0.23,0.17,0.3,0.3l1.44,2.64
		c0.29,0.53,1.05,0.53,1.34,0l1.44-2.64C733.7,532.49,733.8,532.39,733.93,532.31"/>
	<g display="inline">
		<path fill="none" stroke="#7B63AB" stroke-width="1.097" stroke-linecap="round" stroke-linejoin="round" d="M776.88,955.26
			l2.78-2.78 M768.88,963.26l2.78-2.78 M774.49,953.17c0-1-5.48,4.49-4.49,4.49c-1,0,4.49,5.48,4.49,4.49c0,1,5.48-4.49,4.49-4.49
			C779.97,957.65,774.49,952.17,774.49,953.17L774.49,953.17z"/>
	</g>
	<g display="inline">
		<path fill="none" stroke="#E98333" stroke-width="1.097" stroke-linecap="round" stroke-linejoin="round" d="M93.35,671.26
			l-1.47-1.47 M97.35,675.26l-1.47-1.47 M93.42,671.1c0.72-0.72,1.9-0.72,2.62,0c0.72,0.72,0.72,1.9,0,2.62s-1.9,0.72-2.62,0
			C92.7,672.99,92.7,671.82,93.42,671.1L93.42,671.1z"/>
	</g>
</g>
</svg>
