<?xml version="1.0" encoding="utf-8"?>
<!-- Generator: Adobe Illustrator 23.1.1, SVG Export Plug-In . SVG Version: 6.00 Build 0)  -->
<svg version="1.1" id="圖層_1" xmlns="http://www.w3.org/2000/svg" xmlns:xlink="http://www.w3.org/1999/xlink" x="0px" y="0px"
	 viewBox="0 0 450 850" style="enable-background:new 0 0 450 850;" xml:space="preserve">
<style type="text/css">
	.st0{fill-rule:evenodd;clip-rule:evenodd;fill:#FECBCA;}
	.st1{fill-rule:evenodd;clip-rule:evenodd;fill:#FF7E6E;}
</style>
<rect id="bg" x="-13" y="-10" class="st0" width="477" height="613"/>
<path id="_x31_" class="st1" d="M876,998.9H-54.4V542.3h1.3c-0.3-30,3.5-154.8,82.1-174.1c11.1-2.7,21.5-5.5,31.2-8.2
	c-19.6-14-32.5-37.9-32.5-65.2c0-25.7,2.2-42.7,16.4-55.1c-12.4-6.7-21.1-19.2-21.1-36.2c0-27.8,14.1-39.4,37.3-44.9
	c23.7-5.6,48.2,11,48.9,45c0.1,5.7-0.9,11.3-3.2,16.6c37,4.1,66.1,36.1,66.1,74.7c0,7.5-1,15-3,22.3c10.3-5.8,18.8-11.3,26.3-16.4
	c27.8-18.7,85.4-79.4,223.4-68.9c137.7,10.5,172.2-30.3,235.4-49.8c62.5-19.3,181.8-27.1,220.6,26.7v333.6h1.2V998.9z"/>
<path id="_x32_" class="st0" d="M66.8,339.8c0,0-4.9-2.1-7-4.7c-2.1-2.5-15.7-15.1-23.3-2.3c-7.5,12.6,11,29.7,14,32.6
	c2.9,2.9,7.5,6,14,2.3c0,0,2.9-2.5,4.7,0s9.1,16.9,21,21c0,0,1.2,31.1,25.1,53.4c23.9,22.3,48.3-1.7,48.9-16.3
	c0,0,6.9-13.6-1.8-46.4c0,0-1.4-6,2.3-9.3c3.7-3.3,18-19.2,14-51.3s-86.4-49.5-104.8,2.3c0,0,1.3,12.7-2.3,16.3
	C71.4,337.5,70.3,339.5,66.8,339.8z"/>
<path id="_x33_" class="st1" d="M84.4,355.2C81.8,333.3,73.2,314,73.2,314c-6.2-12.4,77.4-67.3,88.1-56.6
	c11,11.1,16.8,57.7,16.8,57.7C138.6,346,84.4,355.2,84.4,355.2z M135.6,357.5l4.7-4.7h11.7c-5.7,26.5-34.9,14-34.9,14l11.7-9.3
	L135.6,357.5L135.6,357.5z"/>
</svg>
