<?xml version="1.0" encoding="utf-8"?>
<!-- Generator: Adobe Illustrator 23.1.1, SVG Export Plug-In . SVG Version: 6.00 Build 0)  -->
<svg version="1.1" id="group" xmlns="http://www.w3.org/2000/svg" xmlns:xlink="http://www.w3.org/1999/xlink" x="0px" y="0px"
	 viewBox="0 0 2880 2800" style="enable-background:new 0 0 2880 2800;" xml:space="preserve">
<style type="text/css">
	.st0{fill-rule:evenodd;clip-rule:evenodd;fill:#FF7E6E;}
	.st1{fill-rule:evenodd;clip-rule:evenodd;fill:#FECBCA;}
</style>
<path id="_x31_" class="st0" d="M2943,2807.4H-234v-1492h4.6c-0.9-102.4,11.9-528.5,280.3-594.4c38-9.3,73.4-18.7,106.7-28.1
	C90.7,645.2,46.6,563.4,46.6,470.3c0-87.6,7.5-145.8,56.1-188c-42.3-23-72-65.5-72-123.7c0-95,48.2-134.7,127.2-153.4
	C238.9-13.9,322.4,42.6,325,158.7c0.5,19.4-3.2,38.7-10.9,56.6c126.3,14,225.7,123.1,225.7,255.1c0,25.7-3.4,51.3-10.2,76.1
	c35.2-19.8,64.1-38.6,89.7-55.9c94.8-64,291.5-271.2,762.7-235.2c470.2,36,588-103.4,803.9-170.1c213.4-65.9,620.6-92.6,753.1,91
	v1139.2h4V2807.4z"/>
<path id="_x32_" class="st1" d="M173.9,617.5c0,0-16.7-7.2-23.9-15.9s-53.5-51.5-79.5-8c-25.7,43,37.7,101.5,47.7,111.4
	s25.7,20.6,47.7,8c0,0,9.8-8.5,15.9,0s31,57.7,71.6,71.6c0,0,4.1,106.1,85.8,182.2s164.9-5.9,167-55.7c0,0,23.5-46.3-6.2-158.4
	c0,0-4.8-20.5,8-31.8c12.7-11.3,61.5-65.6,47.7-175s-295.1-169-358,8c0,0,4.5,43.2-8,55.7C189.8,609.5,185.8,616.2,173.9,617.5z"/>
<path id="_x33_" class="st0" d="M237.5,673.2c-8.8-74.8-38.3-140.8-38.3-140.8C178,490,463.6,302.5,500,339.1
	c37.7,37.9,57.4,197.1,57.4,197.1C422.8,641.7,237.5,673.2,237.5,673.2z M412.5,681.1l15.9-15.9h39.8
	C448.7,755.8,348.9,713,348.9,713l39.8-31.8L412.5,681.1L412.5,681.1z"/>
</svg>
