<?xml version="1.0" encoding="utf-8"?>
<!-- Generator: Adobe Illustrator 23.1.1, SVG Export Plug-In . SVG Version: 6.00 Build 0)  -->
<svg version="1.1" id="szu" xmlns="http://www.w3.org/2000/svg" xmlns:xlink="http://www.w3.org/1999/xlink" x="0px" y="0px"
	 viewBox="0 0 2880 2880" style="enable-background:new 0 0 2880 2880;" xml:space="preserve">
<style type="text/css">
	.st0{fill-rule:evenodd;clip-rule:evenodd;fill:#FF7E6E;}
	.st1{fill-rule:evenodd;clip-rule:evenodd;fill:#FECBCA;}
</style>
<path id="_x31_" class="st0" d="M2951.8,2879.5h-3177v-1559h4.6c-0.9-102.4,11.9-528.5,280.3-594.4c38-9.3,73.4-18.7,106.7-28.1
	c-66.9-47.7-111-129.5-111-222.6c0-87.6,7.5-145.8,56.1-188c-42.3-23-72-65.5-72-123.7c0-95,48.2-134.7,127.2-153.4
	c81-19.1,164.5,37.4,167.1,153.5c0.5,19.4-3.2,38.7-10.9,56.6c126.3,14,225.7,123.1,225.7,255.1c0,25.7-3.4,51.3-10.2,76.1
	c35.2-19.8,64.1-38.6,89.7-55.9c94.8-64,291.5-271.2,762.7-235.2c470.2,36,588-103.4,803.9-170.1c213.4-65.9,620.6-92.6,753.1,91
	v1139.2h4V2879.5z"/>
<path id="_x32_" class="st1" d="M188.8,629.1c0,0-16.7-7.2-23.9-15.9s-53.5-51.5-79.5-8c-25.7,43,37.7,101.5,47.7,111.4
	s25.7,20.6,47.7,8c0,0,9.8-8.5,15.9,0s31,57.7,71.6,71.6c0,0,4.1,106.1,85.8,182.2s164.9-5.9,167-55.7c0,0,23.5-46.3-6.2-158.4
	c0,0-4.8-20.5,8-31.8c12.7-11.3,61.5-65.6,47.7-175s-295.1-169-358,8c0,0,4.5,43.2-8,55.7C204.7,621.1,200.7,627.8,188.8,629.1z"/>
<path id="_x33_" class="st0" d="M248.8,681.6c-8.8-74.8-38.3-140.8-38.3-140.8c-21.2-42.4,264.4-229.9,300.8-193.3
	c37.7,37.9,57.4,197.1,57.4,197.1C434.1,650.1,248.8,681.6,248.8,681.6z M423.8,689.5l15.9-15.9h39.8
	c-19.5,90.6-119.3,47.8-119.3,47.8l39.8-31.8L423.8,689.5L423.8,689.5z"/>
</svg>
