<svg id="SKILL2" xmlns="http://www.w3.org/2000/svg" xmlns:xlink="http://www.w3.org/1999/xlink" width="560" height="560" viewBox="0 0 560 560">
  <defs>
    <style>
      .cls-1 {
        fill: #ffe3dc;
        fill-opacity: 0.6;
      }

      .cls-2 {
        fill: #fff;
        filter: url(#filter);
      }

      .cls-2, .cls-3, .cls-4, .cls-5, .cls-6 {
        fill-rule: evenodd;
      }

      .cls-3 {
        fill: #ff8679;
      }

      .cls-4 {
        fill: #ffdad0;
      }

      .cls-5 {
        fill: #6d5da8;
      }

      .cls-6 {
        fill: #ffc7cb;
      }
    </style>
    <filter id="filter" x="109" y="192" width="343" height="253" filterUnits="userSpaceOnUse">
      <feOffset result="offset" in="SourceAlpha"/>
      <feGaussianBlur result="blur" stdDeviation="4.472"/>
      <feFlood result="flood" flood-color="#ff6a5c" flood-opacity="0.1"/>
      <feComposite result="composite" operator="in" in2="blur"/>
      <feBlend result="blend" in="SourceGraphic"/>
    </filter>
  </defs>
  <circle id="bg" class="cls-1" cx="280" cy="280" r="280"/>
  <path id="w" class="cls-2" d="M425,423H135a5,5,0,0,1-5-5V218a5,5,0,0,1,5-5H425a5,5,0,0,1,5,5V418A5,5,0,0,1,425,423ZM147.882,224a5.009,5.009,0,1,0,4.706,5A4.86,4.86,0,0,0,147.882,224Zm15.059,0a5.009,5.009,0,1,0,4.706,5A4.86,4.86,0,0,0,162.941,224ZM178,224a5.009,5.009,0,1,0,4.706,5A4.86,4.86,0,0,0,178,224Z"/>
  <path id="_" data-name="$" class="cls-3" d="M408,377H202a2,2,0,0,1-2-2v-4a2,2,0,0,1,2-2H408a2,2,0,0,1,2,2v4A2,2,0,0,1,408,377Zm-20-63H282a2,2,0,0,1-2-2v-4a2,2,0,0,1,2-2H388a2,2,0,0,1,2,2v4A2,2,0,0,1,388,314Zm-30-21H302a2,2,0,0,1-2-2v-4a2,2,0,0,1,2-2h56a2,2,0,0,1,2,2v4A2,2,0,0,1,358,293Zm-70,0H232a2,2,0,0,1-2-2v-4a2,2,0,0,1,2-2h56a2,2,0,0,1,2,2v4A2,2,0,0,1,288,293Zm-74.032-11.828a2.96,2.96,0,0,0-1.373-.3,2.209,2.209,0,0,0-1.113.288,0.953,0.953,0,0,0-.507.888,0.872,0.872,0,0,0,.428.775,5.87,5.87,0,0,0,1.237.55,7.945,7.945,0,0,1,3.15,1.912,4.41,4.41,0,0,1,1.125,3.162,5.847,5.847,0,0,1-.517,2.538,5.733,5.733,0,0,1-1.339,1.825,6.138,6.138,0,0,1-1.868,1.15,7.694,7.694,0,0,1-2.1.513l-0.315,1.924h-2.295l0.315-1.9a9.338,9.338,0,0,1-2.993-.75,6.951,6.951,0,0,1-2.385-1.649l3.488-3.576a3.571,3.571,0,0,0,1.406,1.076,3.988,3.988,0,0,0,1.609.4,2.305,2.305,0,0,0,1.215-.288,0.9,0.9,0,0,0,.472-0.813,1.026,1.026,0,0,0-.393-0.774,4.681,4.681,0,0,0-1.429-.726,12.475,12.475,0,0,1-1.586-.675,4.723,4.723,0,0,1-1.272-.937,4.043,4.043,0,0,1-.843-1.325,5.031,5.031,0,0,1-.3-1.862,6.337,6.337,0,0,1,.394-2.25,5.779,5.779,0,0,1,1.125-1.863,6.3,6.3,0,0,1,1.743-1.35,6.8,6.8,0,0,1,2.25-.713l0.315-1.749h2.318l-0.315,1.749a8.341,8.341,0,0,1,2.621.676,5.5,5.5,0,0,1,1.969,1.374l-3.263,3.5A2.809,2.809,0,0,0,213.968,281.172ZM270,308v4a2,2,0,0,1-2,2H202a2,2,0,0,1-2-2v-4a2,2,0,0,1,2-2h66A2,2,0,0,1,270,308Zm38,40a2,2,0,0,1,2,2v4a2,2,0,0,1-2,2H252a2,2,0,0,1-2-2v-4a2,2,0,0,1,2-2h56ZM202,327H338a2,2,0,0,1,2,2v4a2,2,0,0,1-2,2H202a2,2,0,0,1-2-2v-4A2,2,0,0,1,202,327Zm0,21h36a2,2,0,0,1,2,2v4a2,2,0,0,1-2,2H202a2,2,0,0,1-2-2v-4A2,2,0,0,1,202,348Zm0,42H338a2,2,0,0,1,2,2v4a2,2,0,0,1-2,2H202a2,2,0,0,1-2-2v-4A2,2,0,0,1,202,390Zm150,0h36a2,2,0,0,1,2,2v4a2,2,0,0,1-2,2H352a2,2,0,0,1-2-2v-4A2,2,0,0,1,352,390Z"/>
  <path id="side" class="cls-4" d="M176,335H153a2,2,0,0,1-2-2v-4a2,2,0,0,1,2-2h23a2,2,0,0,1,2,2v4A2,2,0,0,1,176,335Zm-7-21H153a2,2,0,0,1-2-2v-4a2,2,0,0,1,2-2h16a2,2,0,0,1,2,2v4A2,2,0,0,1,169,314Zm0-21H153a2,2,0,0,1-2-2v-4a2,2,0,0,1,2-2h16a2,2,0,0,1,2,2v4A2,2,0,0,1,169,293Zm-16,55h14a2,2,0,0,1,2,2v4a2,2,0,0,1-2,2H153a2,2,0,0,1-2-2v-4A2,2,0,0,1,153,348Z"/>
  <path id="_2" data-name="|" class="cls-4" d="M187,263h2V408h-2V263Z"/>
  <path id="hexagon" class="cls-5" d="M354.536,218.707l-74.431,42.824-74.3-43.046,0.128-85.872,74.431-42.824,74.3,43.047Z"/>
  <path id="jQ" class="cls-6" d="M301.213,135.057a37.167,37.167,0,0,1,13.163,2.223,28.93,28.93,0,0,1,10.11,6.3,27.645,27.645,0,0,1,6.487,9.948,36.063,36.063,0,0,1,2.289,13.177,45.365,45.365,0,0,1-1.39,11.8,41.745,41.745,0,0,1-3.449,8.944,32.669,32.669,0,0,1-4.407,6.4,25.594,25.594,0,0,1-4.359,3.969l-0.1.318,14.368-.318L331.64,211.9H293.772a36.866,36.866,0,0,1-13.066-2.223,28.993,28.993,0,0,1-10.158-6.35,27.819,27.819,0,0,1-6.534-10,36.021,36.021,0,0,1-2.289-13.177,51.608,51.608,0,0,1,2.955-17.622,45.19,45.19,0,0,1,8.252-14.342,38.439,38.439,0,0,1,12.542-9.631A35.778,35.778,0,0,1,301.213,135.057Zm-21.442,32.916a33.622,33.622,0,0,0-1.567,10.161,22.787,22.787,0,0,0,1.092,7.144,17.922,17.922,0,0,0,3.182,5.874,15.007,15.007,0,0,0,5.18,4.022,16.143,16.143,0,0,0,7.08,1.482,17.905,17.905,0,0,0,9.026-2.328,22.725,22.725,0,0,0,6.985-6.192,29.109,29.109,0,0,0,4.465-8.891,34.457,34.457,0,0,0,1.569-10.319,22.823,22.823,0,0,0-1.093-7.145,17.82,17.82,0,0,0-3.136-5.82,14.412,14.412,0,0,0-5.084-3.916,16.358,16.358,0,0,0-7.031-1.429,18.369,18.369,0,0,0-9.17,2.328,22.543,22.543,0,0,0-7.031,6.192A29.251,29.251,0,0,0,279.771,167.973Zm-55.229,54.719a7.563,7.563,0,0,0,1.714.424,12.948,12.948,0,0,0,1.525.106,5.281,5.281,0,0,0,5-2.593,20.092,20.092,0,0,0,2.144-6.721l8.668-54.719h15.336l-8.668,54.719a62.827,62.827,0,0,1-2.143,9.1,25.935,25.935,0,0,1-3.81,7.621,17.113,17.113,0,0,1-6.287,5.186c-0.424.209-.894,0.375-1.353,0.549l-13.3-7.7Zm28.767-71.018a7.976,7.976,0,0,1-5.953-2.381,8.329,8.329,0,0,1-2.334-6.087,10.432,10.432,0,0,1,2.62-7.249,8.316,8.316,0,0,1,6.429-2.911,7.633,7.633,0,0,1,5.811,2.434,8.48,8.48,0,0,1,2.286,6.033,11.183,11.183,0,0,1-.667,3.916,10.953,10.953,0,0,1-1.857,3.229,8.516,8.516,0,0,1-2.81,2.222A7.908,7.908,0,0,1,253.309,151.674Z"/>
</svg>
