<svg id="SKILL3" xmlns="http://www.w3.org/2000/svg" width="560" height="560" viewBox="0 0 560 560">
  <defs>
    <style>
      .cls-1 {
        fill: #ffe3dc;
        fill-opacity: 0.6;
      }

      .cls-2 {
        fill: #6b5ba6;
      }

      .cls-2, .cls-3, .cls-4 {
        fill-rule: evenodd;
      }

      .cls-3 {
        fill: #fff;
      }

      .cls-4 {
        fill: #ffdad0;
      }
    </style>
  </defs>
  <circle id="bg" class="cls-1" cx="280" cy="280" r="280"/>
  <path id="a" class="cls-2" d="M415,421H233a8,8,0,0,1-8-8V299a8,8,0,0,1,8-8H415a8,8,0,0,1,8,8V413A8,8,0,0,1,415,421ZM397.344,262.25H326.969a18,18,0,0,1-18-18V150.313a18,18,0,0,1,18-18h70.375a18,18,0,0,1,18,18V244.25A18,18,0,0,1,397.344,262.25ZM286,277H146a8,8,0,0,1-8-8V165a8,8,0,0,1,8-8H286a8,8,0,0,1,8,8V269A8,8,0,0,1,286,277Zm-94.375,31.75a18,18,0,0,1,18,18v93.938a18,18,0,0,1-18,18H150.719a18,18,0,0,1-18-18V326.75a18,18,0,0,1,18-18h40.906Z"/>
  <path id="b" class="cls-3" d="M412.275,414.693H235.894a5,5,0,0,1-5-5V317.409H417.275v92.285A5,5,0,0,1,412.275,414.693ZM230.894,301.737a5,5,0,0,1,5-5H412.275a5,5,0,0,1,5,5v12.719H230.894V301.737Zm28.293,7.4A2.943,2.943,0,1,0,256.4,306.2,2.865,2.865,0,0,0,259.187,309.14Zm-8.873,0a2.944,2.944,0,1,0-2.77-2.939A2.858,2.858,0,0,0,250.314,309.14Zm-8.887,0a2.944,2.944,0,1,0-2.771-2.939A2.858,2.858,0,0,0,241.427,309.14Zm154.917-52.89H327.969a13,13,0,0,1-13-13V151.312a13,13,0,0,1,13-13h68.375a13,13,0,0,1,13,13V243.25A13,13,0,0,1,396.344,256.25ZM283.219,271.234h-133.9a5,5,0,0,1-5-5V183.95h143.9v82.284A5,5,0,0,1,283.219,271.234Zm-138.9-102.928a5,5,0,0,1,5-5h133.9a5,5,0,0,1,5,5v13h-143.9v-13Zm28.42,7.4a2.958,2.958,0,1,0-2.8-2.953A2.878,2.878,0,0,0,172.739,175.71Zm-8.9,0a2.959,2.959,0,1,0-2.784-2.953A2.873,2.873,0,0,0,163.837,175.71Zm-8.915,0a2.959,2.959,0,1,0-2.784-2.953A2.872,2.872,0,0,0,154.922,175.71Zm35.7,139.04a13,13,0,0,1,13,13v91.937a13,13,0,0,1-13,13H151.719a13,13,0,0,1-13-13V327.75a13,13,0,0,1,13-13h38.906Z"/>
  <path id="c" class="cls-4" d="M402,402H247a3,3,0,0,1-3-3V335a3,3,0,0,1,3-3H402a3,3,0,0,1,3,3v64A3,3,0,0,1,402,402ZM367.816,245.083v0.028a5.668,5.668,0,0,1-11.335,0v-0.028A5.668,5.668,0,1,1,367.816,245.083Zm-47.441-92.364a8,8,0,0,1,8-8h67.563a8,8,0,0,1,8,8V230.25H320.375V152.719ZM272,261H160a3,3,0,0,1-3-3V198a3,3,0,0,1,3-3H272a3,3,0,0,1,3,3v60A3,3,0,0,1,272,261ZM157.986,324.408h25.167c0.791,0,1.254-.776,1.671-1.433l2.274-3.637h4.911a7,7,0,0,1,7,7v94.756a7,7,0,0,1-7,7H150.325a7,7,0,0,1-7-7V326.338a7,7,0,0,1,7-7h3.716l2.273,3.637C156.732,323.632,157.2,324.408,157.986,324.408Z"/>
</svg>
